ISO-10303-21;
HEADER;
FILE_DESCRIPTION (( 'STEP AP214' ),
    '1' );
FILE_NAME ('挡柱转接.STEP',
    '2025-05-15T15:39:24',
    ( '' ),
    ( '' ),
    'SwSTEP 2.0',
    'SolidWorks 2023',
    '' );
FILE_SCHEMA (( 'AUTOMOTIVE_DESIGN' ));
ENDSEC;

DATA;
#1 = FACE_OUTER_BOUND ( 'NONE', #9, .T. ) ;
#2 = EDGE_LOOP ( 'NONE', ( #89, #143 ) ) ;
#3 = CYLINDRICAL_SURFACE ( 'NONE', #19, 2.575000000000000622 ) ;
#4 = DIRECTION ( 'NONE',  ( 0.000000000000000000, 0.000000000000000000, 1.000000000000000000 ) ) ;
#5 = CARTESIAN_POINT ( 'NONE',  ( 0.000000000000000000, 35.00000000000000000, 0.000000000000000000 ) ) ;
#6 = FILL_AREA_STYLE ('',( #54 ) ) ;
#7 = EDGE_CURVE ( 'NONE', #11, #192, #77, .T. ) ;
#8 = AXIS2_PLACEMENT_3D ( 'NONE', #126, #64, #29 ) ;
#9 = EDGE_LOOP ( 'NONE', ( #82, #106 ) ) ;
#10 = SHAPE_DEFINITION_REPRESENTATION ( #138, #101 ) ;
#11 = VERTEX_POINT ( 'NONE', #185 ) ;
#12 = DIRECTION ( 'NONE',  ( 0.000000000000000000, 0.000000000000000000, 1.000000000000000000 ) ) ;
#13 = CARTESIAN_POINT ( 'NONE',  ( 0.000000000000000000, 35.00000000000000000, -2.575000000000000622 ) ) ;
#14 = PRODUCT ( '\X2\632167f18f6c63a5\X0\', '\X2\632167f18f6c63a5\X0\', '', ( #42 ) ) ;
#15 = ADVANCED_FACE ( 'NONE', ( #1, #33 ), #186, .F. ) ;
#16 = CARTESIAN_POINT ( 'NONE',  ( 0.000000000000000000, 0.000000000000000000, 0.000000000000000000 ) ) ;
#17 = DIRECTION ( 'NONE',  ( 0.000000000000000000, 0.000000000000000000, -1.000000000000000000 ) ) ;
#18 = CARTESIAN_POINT ( 'NONE',  ( 0.000000000000000000, 35.00000000000000000, 0.000000000000000000 ) ) ;
#19 = AXIS2_PLACEMENT_3D ( 'NONE', #71, #176, #103 ) ;
#20 = CARTESIAN_POINT ( 'NONE',  ( 0.000000000000000000, 0.000000000000000000, 0.000000000000000000 ) ) ;
#21 = AXIS2_PLACEMENT_3D ( 'NONE', #38, #132, #171 ) ;
#22 = ADVANCED_FACE ( 'NONE', ( #96 ), #50, .T. ) ;
#23 = PRESENTATION_STYLE_ASSIGNMENT (( #177 ) ) ;
#24 = SURFACE_SIDE_STYLE ('',( #70 ) ) ;
#25 = AXIS2_PLACEMENT_3D ( 'NONE', #114, #97, #110 ) ;
#26 = CARTESIAN_POINT ( 'NONE',  ( 0.000000000000000000, 35.00000000000000000, 0.000000000000000000 ) ) ;
#27 = ORIENTED_EDGE ( 'NONE', *, *, #180, .T. ) ;
#28 = ORIENTED_EDGE ( 'NONE', *, *, #7, .T. ) ;
#29 = DIRECTION ( 'NONE',  ( 0.000000000000000000, 0.000000000000000000, -1.000000000000000000 ) ) ;
#30 = EDGE_CURVE ( 'NONE', #123, #41, #151, .T. ) ;
#31 = LINE ( 'NONE', #152, #195 ) ;
#32 = DIRECTION ( 'NONE',  ( 0.000000000000000000, 0.000000000000000000, 1.000000000000000000 ) ) ;
#33 = FACE_BOUND ( 'NONE', #68, .T. ) ;
#34 = DIRECTION ( 'NONE',  ( 0.000000000000000000, 0.000000000000000000, 1.000000000000000000 ) ) ;
#35 = PRESENTATION_LAYER_ASSIGNMENT (  '', '', ( #157 ) ) ;
#36 = AXIS2_PLACEMENT_3D ( 'NONE', #26, #104, #4 ) ;
#37 = DIRECTION ( 'NONE',  ( 0.000000000000000000, 1.000000000000000000, 0.000000000000000000 ) ) ;
#38 = CARTESIAN_POINT ( 'NONE',  ( 0.000000000000000000, 0.000000000000000000, 0.000000000000000000 ) ) ;
#39 = DIRECTION ( 'NONE',  ( -0.000000000000000000, -1.000000000000000000, -0.000000000000000000 ) ) ;
#40 = EDGE_LOOP ( 'NONE', ( #58, #197, #141, #178 ) ) ;
#41 = VERTEX_POINT ( 'NONE', #182 ) ;
#42 = PRODUCT_CONTEXT ( 'NONE', #137, 'mechanical' ) ;
#43 = PRODUCT_DEFINITION_CONTEXT ( 'detailed design', #62, 'design' ) ;
#44 = ORIENTED_EDGE ( 'NONE', *, *, #122, .F. ) ;
#45 = DIRECTION ( 'NONE',  ( 0.000000000000000000, 0.000000000000000000, 1.000000000000000000 ) ) ;
#46 = CYLINDRICAL_SURFACE ( 'NONE', #127, 2.575000000000000622 ) ;
#47 = COLOUR_RGB ( '',0.7921568627450980005, 0.8196078431372548767, 0.9333333333333333481 ) ;
#48 = DIRECTION ( 'NONE',  ( 0.000000000000000000, 0.000000000000000000, 1.000000000000000000 ) ) ;
#49 = ORIENTED_EDGE ( 'NONE', *, *, #160, .T. ) ;
#50 = CYLINDRICAL_SURFACE ( 'NONE', #66, 4.500000000000000000 ) ;
#51 = CARTESIAN_POINT ( 'NONE',  ( 5.510910596163088569E-16, 35.00000000000000000, 4.500000000000000000 ) ) ;
#52 = CARTESIAN_POINT ( 'NONE',  ( 3.153465507804434798E-16, 35.00000000000000000, 2.575000000000000622 ) ) ;
#53 = CIRCLE ( 'NONE', #166, 4.500000000000000000 ) ;
#54 = FILL_AREA_STYLE_COLOUR ( '', #47 ) ;
#55 = DIRECTION ( 'NONE',  ( -0.000000000000000000, -1.000000000000000000, -0.000000000000000000 ) ) ;
#56 = EDGE_CURVE ( 'NONE', #192, #11, #190, .T. ) ;
#57 = ORIENTED_EDGE ( 'NONE', *, *, #188, .F. ) ;
#58 = ORIENTED_EDGE ( 'NONE', *, *, #160, .F. ) ;
#59 =( NAMED_UNIT ( * ) SI_UNIT ( $, .STERADIAN. ) SOLID_ANGLE_UNIT ( ) );
#60 = DIRECTION ( 'NONE',  ( -0.000000000000000000, -1.000000000000000000, -0.000000000000000000 ) ) ;
#61 = CARTESIAN_POINT ( 'NONE',  ( 0.000000000000000000, 35.00000000000000000, 0.000000000000000000 ) ) ;
#62 = APPLICATION_CONTEXT ( 'automotive_design' ) ;
#63 = AXIS2_PLACEMENT_3D ( 'NONE', #61, #167, #12 ) ;
#64 = DIRECTION ( 'NONE',  ( -0.000000000000000000, -1.000000000000000000, -0.000000000000000000 ) ) ;
#65 = PRODUCT_DEFINITION_FORMATION_WITH_SPECIFIED_SOURCE ( '浠', '', #14, .NOT_KNOWN. ) ;
#66 = AXIS2_PLACEMENT_3D ( 'NONE', #156, #170, #17 ) ;
#67 = DIRECTION ( 'NONE',  ( 0.000000000000000000, 1.000000000000000000, 0.000000000000000000 ) ) ;
#68 = EDGE_LOOP ( 'NONE', ( #28, #144 ) ) ;
#69 = LINE ( 'NONE', #52, #173 ) ;
#70 = SURFACE_STYLE_FILL_AREA ( #6 ) ;
#71 = CARTESIAN_POINT ( 'NONE',  ( 0.000000000000000000, 35.00000000000000000, 0.000000000000000000 ) ) ;
#72 = EDGE_CURVE ( 'NONE', #41, #123, #98, .T. ) ;
#73 = MECHANICAL_DESIGN_GEOMETRIC_PRESENTATION_REPRESENTATION (  '', ( #157 ), #90 ) ;
#74 = VERTEX_POINT ( 'NONE', #140 ) ;
#75 = APPLICATION_PROTOCOL_DEFINITION ( 'draft international standard', 'automotive_design', 1998, #137 ) ;
#76 = ORIENTED_EDGE ( 'NONE', *, *, #193, .F. ) ;
#77 = CIRCLE ( 'NONE', #184, 2.575000000000000622 ) ;
#78 = ADVANCED_FACE ( 'NONE', ( #94 ), #95, .T. ) ;
#79 = CARTESIAN_POINT ( 'NONE',  ( 0.000000000000000000, 35.00000000000000000, 0.000000000000000000 ) ) ;
#80 = FACE_OUTER_BOUND ( 'NONE', #131, .T. ) ;
#81 = DIRECTION ( 'NONE',  ( 0.000000000000000000, -0.000000000000000000, 1.000000000000000000 ) ) ;
#82 = ORIENTED_EDGE ( 'NONE', *, *, #180, .F. ) ;
#83 = CARTESIAN_POINT ( 'NONE',  ( 0.000000000000000000, 35.00000000000000000, -4.500000000000000000 ) ) ;
#84 = AXIS2_PLACEMENT_3D ( 'NONE', #107, #45, #124 ) ;
#85 = LINE ( 'NONE', #51, #198 ) ;
#86 =( LENGTH_UNIT ( ) NAMED_UNIT ( * ) SI_UNIT ( .MILLI., .METRE. ) );
#87 = FACE_OUTER_BOUND ( 'NONE', #40, .T. ) ;
#88 =( LENGTH_UNIT ( ) NAMED_UNIT ( * ) SI_UNIT ( .MILLI., .METRE. ) );
#89 = ORIENTED_EDGE ( 'NONE', *, *, #133, .T. ) ;
#90 =( GEOMETRIC_REPRESENTATION_CONTEXT ( 3 ) GLOBAL_UNCERTAINTY_ASSIGNED_CONTEXT ( ( #119 ) ) GLOBAL_UNIT_ASSIGNED_CONTEXT ( ( #86, #134, #146 ) ) REPRESENTATION_CONTEXT ( 'NONE', 'WORKASPACE' ) );
#91 = CIRCLE ( 'NONE', #99, 4.500000000000000000 ) ;
#92 = ORIENTED_EDGE ( 'NONE', *, *, #30, .F. ) ;
#93 = CIRCLE ( 'NONE', #36, 4.500000000000000000 ) ;
#94 = FACE_OUTER_BOUND ( 'NONE', #121, .T. ) ;
#95 = CYLINDRICAL_SURFACE ( 'NONE', #8, 4.500000000000000000 ) ;
#96 = FACE_OUTER_BOUND ( 'NONE', #154, .T. ) ;
#97 = DIRECTION ( 'NONE',  ( 0.000000000000000000, 1.000000000000000000, 0.000000000000000000 ) ) ;
#98 = CIRCLE ( 'NONE', #63, 2.575000000000000622 ) ;
#99 = AXIS2_PLACEMENT_3D ( 'NONE', #187, #189, #159 ) ;
#100 = FACE_BOUND ( 'NONE', #135, .T. ) ;
#101 = ADVANCED_BREP_SHAPE_REPRESENTATION ( '\X2\632167f18f6c63a5\X0\', ( #172, #84 ), #175 ) ;
#102 = CLOSED_SHELL ( 'NONE', ( #129, #78, #145, #15, #22, #155 ) ) ;
#103 = DIRECTION ( 'NONE',  ( 0.000000000000000000, 0.000000000000000000, -1.000000000000000000 ) ) ;
#104 = DIRECTION ( 'NONE',  ( 0.000000000000000000, 1.000000000000000000, 0.000000000000000000 ) ) ;
#105 = EDGE_CURVE ( 'NONE', #123, #11, #196, .T. ) ;
#106 = ORIENTED_EDGE ( 'NONE', *, *, #183, .F. ) ;
#107 = CARTESIAN_POINT ( 'NONE',  ( 0.000000000000000000, 0.000000000000000000, 0.000000000000000000 ) ) ;
#108 = UNCERTAINTY_MEASURE_WITH_UNIT (LENGTH_MEASURE( 1.000000000000000082E-05 ), #88, 'distance_accuracy_value', 'NONE');
#109 = VERTEX_POINT ( 'NONE', #125 ) ;
#110 = DIRECTION ( 'NONE',  ( 0.000000000000000000, 0.000000000000000000, 1.000000000000000000 ) ) ;
#111 = AXIS2_PLACEMENT_3D ( 'NONE', #18, #118, #147 ) ;
#112 = DIRECTION ( 'NONE',  ( 0.000000000000000000, 1.000000000000000000, 0.000000000000000000 ) ) ;
#113 = ORIENTED_EDGE ( 'NONE', *, *, #105, .F. ) ;
#114 = CARTESIAN_POINT ( 'NONE',  ( 0.000000000000000000, 35.00000000000000000, 0.000000000000000000 ) ) ;
#115 = PRODUCT_DEFINITION ( '鏈', '', #65, #43 ) ;
#116 = CIRCLE ( 'NONE', #21, 4.500000000000000000 ) ;
#117 =( NAMED_UNIT ( * ) PLANE_ANGLE_UNIT ( ) SI_UNIT ( $, .RADIAN. ) );
#118 = DIRECTION ( 'NONE',  ( 0.000000000000000000, 1.000000000000000000, 0.000000000000000000 ) ) ;
#119 = UNCERTAINTY_MEASURE_WITH_UNIT (LENGTH_MEASURE( 1.000000000000000082E-05 ), #86, 'distance_accuracy_value', 'NONE');
#120 = CARTESIAN_POINT ( 'NONE',  ( 3.153465507804434798E-16, 0.000000000000000000, 2.575000000000000622 ) ) ;
#121 = EDGE_LOOP ( 'NONE', ( #76, #163, #162, #44 ) ) ;
#122 = EDGE_CURVE ( 'NONE', #136, #149, #31, .T. ) ;
#123 = VERTEX_POINT ( 'NONE', #13 ) ;
#124 = DIRECTION ( 'NONE',  ( 1.000000000000000000, 0.000000000000000000, 0.000000000000000000 ) ) ;
#125 = CARTESIAN_POINT ( 'NONE',  ( 5.510910596163088569E-16, 0.000000000000000000, 4.500000000000000000 ) ) ;
#126 = CARTESIAN_POINT ( 'NONE',  ( 0.000000000000000000, 35.00000000000000000, 0.000000000000000000 ) ) ;
#127 = AXIS2_PLACEMENT_3D ( 'NONE', #79, #139, #194 ) ;
#128 = AXIS2_PLACEMENT_3D ( 'NONE', #20, #169, #81 ) ;
#129 = ADVANCED_FACE ( 'NONE', ( #80 ), #46, .F. ) ;
#130 = ORIENTED_EDGE ( 'NONE', *, *, #7, .F. ) ;
#131 = EDGE_LOOP ( 'NONE', ( #199, #49, #130, #113 ) ) ;
#132 = DIRECTION ( 'NONE',  ( 0.000000000000000000, 1.000000000000000000, 0.000000000000000000 ) ) ;
#133 = EDGE_CURVE ( 'NONE', #136, #74, #53, .T. ) ;
#134 =( NAMED_UNIT ( * ) PLANE_ANGLE_UNIT ( ) SI_UNIT ( $, .RADIAN. ) );
#135 = EDGE_LOOP ( 'NONE', ( #92, #150 ) ) ;
#136 = VERTEX_POINT ( 'NONE', #83 ) ;
#137 = APPLICATION_CONTEXT ( 'automotive_design' ) ;
#138 = PRODUCT_DEFINITION_SHAPE ( 'NONE', 'NONE',  #115 ) ;
#139 = DIRECTION ( 'NONE',  ( -0.000000000000000000, -1.000000000000000000, -0.000000000000000000 ) ) ;
#140 = CARTESIAN_POINT ( 'NONE',  ( 5.510910596163088569E-16, 35.00000000000000000, 4.500000000000000000 ) ) ;
#141 = ORIENTED_EDGE ( 'NONE', *, *, #105, .T. ) ;
#142 = VECTOR ( 'NONE', #60, 1000.000000000000000 ) ;
#143 = ORIENTED_EDGE ( 'NONE', *, *, #193, .T. ) ;
#144 = ORIENTED_EDGE ( 'NONE', *, *, #56, .T. ) ;
#145 = ADVANCED_FACE ( 'NONE', ( #158, #100 ), #174, .T. ) ;
#146 =( NAMED_UNIT ( * ) SI_UNIT ( $, .STERADIAN. ) SOLID_ANGLE_UNIT ( ) );
#147 = DIRECTION ( 'NONE',  ( 0.000000000000000000, -0.000000000000000000, 1.000000000000000000 ) ) ;
#148 = PRODUCT_RELATED_PRODUCT_CATEGORY ( 'part', '', ( #14 ) ) ;
#149 = VERTEX_POINT ( 'NONE', #161 ) ;
#150 = ORIENTED_EDGE ( 'NONE', *, *, #72, .F. ) ;
#151 = CIRCLE ( 'NONE', #25, 2.575000000000000622 ) ;
#152 = CARTESIAN_POINT ( 'NONE',  ( 0.000000000000000000, 35.00000000000000000, -4.500000000000000000 ) ) ;
#153 = DIRECTION ( 'NONE',  ( -0.000000000000000000, -1.000000000000000000, -0.000000000000000000 ) ) ;
#154 = EDGE_LOOP ( 'NONE', ( #57, #179, #191, #27 ) ) ;
#155 = ADVANCED_FACE ( 'NONE', ( #87 ), #3, .F. ) ;
#156 = CARTESIAN_POINT ( 'NONE',  ( 0.000000000000000000, 35.00000000000000000, 0.000000000000000000 ) ) ;
#157 = STYLED_ITEM ( 'NONE', ( #23 ), #172 ) ;
#158 = FACE_OUTER_BOUND ( 'NONE', #2, .T. ) ;
#159 = DIRECTION ( 'NONE',  ( 0.000000000000000000, 0.000000000000000000, 1.000000000000000000 ) ) ;
#160 = EDGE_CURVE ( 'NONE', #41, #192, #69, .T. ) ;
#161 = CARTESIAN_POINT ( 'NONE',  ( 0.000000000000000000, 0.000000000000000000, -4.500000000000000000 ) ) ;
#162 = ORIENTED_EDGE ( 'NONE', *, *, #183, .T. ) ;
#163 = ORIENTED_EDGE ( 'NONE', *, *, #188, .T. ) ;
#164 = AXIS2_PLACEMENT_3D ( 'NONE', #168, #112, #48 ) ;
#165 = APPLICATION_PROTOCOL_DEFINITION ( 'draft international standard', 'automotive_design', 1998, #62 ) ;
#166 = AXIS2_PLACEMENT_3D ( 'NONE', #5, #37, #34 ) ;
#167 = DIRECTION ( 'NONE',  ( 0.000000000000000000, 1.000000000000000000, 0.000000000000000000 ) ) ;
#168 = CARTESIAN_POINT ( 'NONE',  ( 0.000000000000000000, 0.000000000000000000, 0.000000000000000000 ) ) ;
#169 = DIRECTION ( 'NONE',  ( 0.000000000000000000, 1.000000000000000000, 0.000000000000000000 ) ) ;
#170 = DIRECTION ( 'NONE',  ( -0.000000000000000000, -1.000000000000000000, -0.000000000000000000 ) ) ;
#171 = DIRECTION ( 'NONE',  ( 0.000000000000000000, 0.000000000000000000, 1.000000000000000000 ) ) ;
#172 = MANIFOLD_SOLID_BREP ( '凸台-拉伸1', #102 ) ;
#173 = VECTOR ( 'NONE', #39, 1000.000000000000000 ) ;
#174 = PLANE ( 'NONE',  #111 ) ;
#175 =( GEOMETRIC_REPRESENTATION_CONTEXT ( 3 ) GLOBAL_UNCERTAINTY_ASSIGNED_CONTEXT ( ( #108 ) ) GLOBAL_UNIT_ASSIGNED_CONTEXT ( ( #88, #117, #59 ) ) REPRESENTATION_CONTEXT ( 'NONE', 'WORKASPACE' ) );
#176 = DIRECTION ( 'NONE',  ( -0.000000000000000000, -1.000000000000000000, -0.000000000000000000 ) ) ;
#177 = SURFACE_STYLE_USAGE ( .BOTH. , #24 ) ;
#178 = ORIENTED_EDGE ( 'NONE', *, *, #56, .F. ) ;
#179 = ORIENTED_EDGE ( 'NONE', *, *, #133, .F. ) ;
#180 = EDGE_CURVE ( 'NONE', #149, #109, #116, .T. ) ;
#181 = CARTESIAN_POINT ( 'NONE',  ( 0.000000000000000000, 35.00000000000000000, -2.575000000000000622 ) ) ;
#182 = CARTESIAN_POINT ( 'NONE',  ( 3.153465507804434798E-16, 35.00000000000000000, 2.575000000000000622 ) ) ;
#183 = EDGE_CURVE ( 'NONE', #109, #149, #91, .T. ) ;
#184 = AXIS2_PLACEMENT_3D ( 'NONE', #16, #67, #32 ) ;
#185 = CARTESIAN_POINT ( 'NONE',  ( 0.000000000000000000, 0.000000000000000000, -2.575000000000000622 ) ) ;
#186 = PLANE ( 'NONE',  #128 ) ;
#187 = CARTESIAN_POINT ( 'NONE',  ( 0.000000000000000000, 0.000000000000000000, 0.000000000000000000 ) ) ;
#188 = EDGE_CURVE ( 'NONE', #74, #109, #85, .T. ) ;
#189 = DIRECTION ( 'NONE',  ( 0.000000000000000000, 1.000000000000000000, 0.000000000000000000 ) ) ;
#190 = CIRCLE ( 'NONE', #164, 2.575000000000000622 ) ;
#191 = ORIENTED_EDGE ( 'NONE', *, *, #122, .T. ) ;
#192 = VERTEX_POINT ( 'NONE', #120 ) ;
#193 = EDGE_CURVE ( 'NONE', #74, #136, #93, .T. ) ;
#194 = DIRECTION ( 'NONE',  ( 0.000000000000000000, 0.000000000000000000, -1.000000000000000000 ) ) ;
#195 = VECTOR ( 'NONE', #153, 1000.000000000000000 ) ;
#196 = LINE ( 'NONE', #181, #142 ) ;
#197 = ORIENTED_EDGE ( 'NONE', *, *, #72, .T. ) ;
#198 = VECTOR ( 'NONE', #55, 1000.000000000000000 ) ;
#199 = ORIENTED_EDGE ( 'NONE', *, *, #30, .T. ) ;
ENDSEC;
END-ISO-10303-21;
