ISO-10303-21;
HEADER;
FILE_DESCRIPTION (( 'STEP AP214' ),
    '1' );
FILE_NAME ('¸Ä¼þ.STEP',
    '2025-05-15T14:33:39',
    ( '' ),
    ( '' ),
    'SwSTEP 2.0',
    'SolidWorks 2023',
    '' );
FILE_SCHEMA (( 'AUTOMOTIVE_DESIGN' ));
ENDSEC;

DATA;
#1 = CIRCLE ( 'NONE', #104, 1.699999999999998401 ) ;
#2 = SURFACE_SIDE_STYLE ('',( #515 ) ) ;
#3 = DIRECTION ( 'NONE',  ( 0.000000000000000000, 0.000000000000000000, -1.000000000000000000 ) ) ;
#4 = VERTEX_POINT ( 'NONE', #123 ) ;
#5 = ORIENTED_EDGE ( 'NONE', *, *, #485, .T. ) ;
#6 = DIRECTION ( 'NONE',  ( -0.000000000000000000, -1.000000000000000000, -0.000000000000000000 ) ) ;
#7 = PLANE ( 'NONE',  #479 ) ;
#8 = ORIENTED_EDGE ( 'NONE', *, *, #742, .T. ) ;
#9 = DIRECTION ( 'NONE',  ( 8.659560562354919300E-17, -0.7071067811865487940, 0.7071067811865463515 ) ) ;
#10 = APPLICATION_PROTOCOL_DEFINITION ( 'draft international standard', 'automotive_design', 1998, #1040 ) ;
#11 = AXIS2_PLACEMENT_3D ( 'NONE', #892, #142, #489 ) ;
#12 = LINE ( 'NONE', #373, #27 ) ;
#13 = CARTESIAN_POINT ( 'NONE',  ( -17.50000000000000000, 0.000000000000000000, -5.750000000000000000 ) ) ;
#14 = ORIENTED_EDGE ( 'NONE', *, *, #759, .T. ) ;
#15 = EDGE_CURVE ( 'NONE', #194, #162, #750, .T. ) ;
#16 = EDGE_CURVE ( 'NONE', #789, #449, #306, .T. ) ;
#17 = DIRECTION ( 'NONE',  ( 0.000000000000000000, 0.000000000000000000, 1.000000000000000000 ) ) ;
#18 = ADVANCED_FACE ( 'NONE', ( #455 ), #651, .T. ) ;
#19 = CONICAL_SURFACE ( 'NONE', #160, 2.000000000000008882, 0.7853981633974466137 ) ;
#20 = CONICAL_SURFACE ( 'NONE', #451, 3.199999999999999734, 0.7853981633974479459 ) ;
#21 = EDGE_LOOP ( 'NONE', ( #336, #37, #5, #124 ) ) ;
#22 = CYLINDRICAL_SURFACE ( 'NONE', #887, 1.699999999999998401 ) ;
#23 = ORIENTED_EDGE ( 'NONE', *, *, #742, .F. ) ;
#24 = ORIENTED_EDGE ( 'NONE', *, *, #794, .F. ) ;
#25 = EDGE_LOOP ( 'NONE', ( #607, #410, #922, #88 ) ) ;
#26 = VECTOR ( 'NONE', #385, 1000.000000000000000 ) ;
#27 = VECTOR ( 'NONE', #944, 1000.000000000000000 ) ;
#28 = CARTESIAN_POINT ( 'NONE',  ( 0.000000000000000000, 4.800000000000004263, 5.750000000000000000 ) ) ;
#29 = CARTESIAN_POINT ( 'NONE',  ( -20.00000000000000000, 1.000000000000000000, -15.00000000000000000 ) ) ;
#30 = ORIENTED_EDGE ( 'NONE', *, *, #258, .F. ) ;
#31 = CONICAL_SURFACE ( 'NONE', #176, 2.000000000000008438, 0.7853981633974463916 ) ;
#32 = VECTOR ( 'NONE', #125, 1000.000000000000000 ) ;
#33 = PLANE ( 'NONE',  #974 ) ;
#34 = DIRECTION ( 'NONE',  ( 0.000000000000000000, -1.000000000000000000, 0.000000000000000000 ) ) ;
#35 = EDGE_LOOP ( 'NONE', ( #370, #1026 ) ) ;
#36 = EDGE_CURVE ( 'NONE', #730, #618, #294, .T. ) ;
#37 = ORIENTED_EDGE ( 'NONE', *, *, #131, .T. ) ;
#38 = LINE ( 'NONE', #807, #414 ) ;
#39 = PRODUCT_DEFINITION_FORMATION_WITH_SPECIFIED_SOURCE ( 'ä»', '', #659, .NOT_KNOWN. ) ;
#40 = CYLINDRICAL_SURFACE ( 'NONE', #224, 1.699999999999998401 ) ;
#41 = EDGE_CURVE ( 'NONE', #359, #747, #876, .T. ) ;
#42 = EDGE_CURVE ( 'NONE', #689, #456, #463, .T. ) ;
#43 = DIRECTION ( 'NONE',  ( 0.000000000000000000, -1.000000000000000000, 0.000000000000000000 ) ) ;
#44 = ORIENTED_EDGE ( 'NONE', *, *, #527, .F. ) ;
#45 = EDGE_LOOP ( 'NONE', ( #792, #1086 ) ) ;
#46 = CYLINDRICAL_SURFACE ( 'NONE', #465, 3.000000000000000888 ) ;
#47 = FACE_OUTER_BOUND ( 'NONE', #500, .T. ) ;
#48 = DIRECTION ( 'NONE',  ( 0.000000000000000000, 1.000000000000000000, 0.000000000000000000 ) ) ;
#49 = ADVANCED_FACE ( 'NONE', ( #128 ), #31, .T. ) ;
#50 = CARTESIAN_POINT ( 'NONE',  ( 19.99999999999999645, 1.000000000000000000, 15.00000000000000000 ) ) ;
#51 = CARTESIAN_POINT ( 'NONE',  ( 2.081899558550498801E-16, 1.500000000000000444, 7.449999999999998401 ) ) ;
#52 = CARTESIAN_POINT ( 'NONE',  ( 0.000000000000000000, 1.500000000000000444, 4.050000000000001599 ) ) ;
#53 = DIRECTION ( 'NONE',  ( -0.000000000000000000, -1.000000000000000000, -0.000000000000000000 ) ) ;
#54 = CARTESIAN_POINT ( 'NONE',  ( 0.000000000000000000, -1.734723475976807094E-15, 5.750000000000000000 ) ) ;
#55 = DIRECTION ( 'NONE',  ( 0.000000000000000000, 0.000000000000000000, 1.000000000000000000 ) ) ;
#56 = EDGE_CURVE ( 'NONE', #967, #998, #392, .T. ) ;
#57 = DIRECTION ( 'NONE',  ( 0.000000000000000000, 0.000000000000000000, -1.000000000000000000 ) ) ;
#58 = CARTESIAN_POINT ( 'NONE',  ( 3.673940397442058389E-16, 4.800000000000004263, 8.750000000000000000 ) ) ;
#59 = FACE_BOUND ( 'NONE', #551, .T. ) ;
#60 = EDGE_CURVE ( 'NONE', #166, #621, #203, .T. ) ;
#61 = ORIENTED_EDGE ( 'NONE', *, *, #291, .T. ) ;
#62 = CARTESIAN_POINT ( 'NONE',  ( 17.50000000000000000, 5.799999999999999822, -5.750000000000000000 ) ) ;
#63 = ORIENTED_EDGE ( 'NONE', *, *, #499, .T. ) ;
#64 = AXIS2_PLACEMENT_3D ( 'NONE', #338, #1082, #68 ) ;
#65 = CARTESIAN_POINT ( 'NONE',  ( -25.00000000000000000, 1.000000000000000000, 15.00000000000000000 ) ) ;
#66 = CARTESIAN_POINT ( 'NONE',  ( -17.50000000000000000, 5.799999999999999822, -7.449999999999998401 ) ) ;
#67 = ORIENTED_EDGE ( 'NONE', *, *, #120, .T. ) ;
#68 = DIRECTION ( 'NONE',  ( 0.000000000000000000, 0.000000000000000000, 1.000000000000000000 ) ) ;
#69 = ORIENTED_EDGE ( 'NONE', *, *, #292, .T. ) ;
#70 = ORIENTED_EDGE ( 'NONE', *, *, #882, .T. ) ;
#71 = VECTOR ( 'NONE', #169, 1000.000000000000000 ) ;
#72 = DIRECTION ( 'NONE',  ( 0.000000000000000000, 0.000000000000000000, -1.000000000000000000 ) ) ;
#73 = EDGE_CURVE ( 'NONE', #162, #606, #469, .T. ) ;
#74 = VERTEX_POINT ( 'NONE', #635 ) ;
#75 = FACE_OUTER_BOUND ( 'NONE', #795, .T. ) ;
#76 = ORIENTED_EDGE ( 'NONE', *, *, #369, .F. ) ;
#77 = ORIENTED_EDGE ( 'NONE', *, *, #796, .F. ) ;
#78 = CARTESIAN_POINT ( 'NONE',  ( 17.50000000000000000, 0.000000000000000000, -5.750000000000000000 ) ) ;
#79 = CONICAL_SURFACE ( 'NONE', #375, 3.200000000000001510, 0.7853981633974480570 ) ;
#80 = CONICAL_SURFACE ( 'NONE', #226, 2.000000000000008438, 0.7853981633974463916 ) ;
#81 = FACE_OUTER_BOUND ( 'NONE', #957, .T. ) ;
#82 = AXIS2_PLACEMENT_3D ( 'NONE', #95, #276, #764 ) ;
#83 = CARTESIAN_POINT ( 'NONE',  ( 0.000000000000000000, 0.000000000000000000, 5.750000000000000000 ) ) ;
#84 = EDGE_CURVE ( 'NONE', #1041, #491, #966, .T. ) ;
#85 = ADVANCED_FACE ( 'NONE', ( #699 ), #870, .T. ) ;
#86 = CIRCLE ( 'NONE', #1034, 3.199999999999999734 ) ;
#87 = DIRECTION ( 'NONE',  ( 0.000000000000000000, 1.000000000000000000, 0.000000000000000000 ) ) ;
#88 = ORIENTED_EDGE ( 'NONE', *, *, #342, .F. ) ;
#89 = VERTEX_POINT ( 'NONE', #474 ) ;
#90 = UNCERTAINTY_MEASURE_WITH_UNIT (LENGTH_MEASURE( 1.000000000000000082E-05 ), #821, 'distance_accuracy_value', 'NONE');
#91 = CARTESIAN_POINT ( 'NONE',  ( 0.000000000000000000, 4.800000000000004263, 5.750000000000000000 ) ) ;
#92 = DIRECTION ( 'NONE',  ( 2.775557561562890957E-15, 0.000000000000000000, 1.000000000000000000 ) ) ;
#93 = ORIENTED_EDGE ( 'NONE', *, *, #157, .F. ) ;
#94 = DIRECTION ( 'NONE',  ( -0.000000000000000000, -1.000000000000000000, -0.000000000000000000 ) ) ;
#95 = CARTESIAN_POINT ( 'NONE',  ( 17.50000000000000000, 1.500000000000000444, -5.750000000000000000 ) ) ;
#96 = DIRECTION ( 'NONE',  ( 0.000000000000000000, 0.000000000000000000, 1.000000000000000000 ) ) ;
#97 = ORIENTED_EDGE ( 'NONE', *, *, #906, .F. ) ;
#98 = CARTESIAN_POINT ( 'NONE',  ( -17.50000000000000000, 5.799999999999999822, -4.050000000000001599 ) ) ;
#99 = EDGE_CURVE ( 'NONE', #74, #787, #519, .T. ) ;
#100 = AXIS2_PLACEMENT_3D ( 'NONE', #229, #572, #1067 ) ;
#101 = DIRECTION ( 'NONE',  ( -0.000000000000000000, -1.000000000000000000, -0.000000000000000000 ) ) ;
#102 = VERTEX_POINT ( 'NONE', #628 ) ;
#103 = DIRECTION ( 'NONE',  ( 6.938893903907228378E-16, 0.000000000000000000, 1.000000000000000000 ) ) ;
#104 = AXIS2_PLACEMENT_3D ( 'NONE', #570, #975, #891 ) ;
#105 = AXIS2_PLACEMENT_3D ( 'NONE', #185, #446, #103 ) ;
#106 = ORIENTED_EDGE ( 'NONE', *, *, #167, .F. ) ;
#107 = ORIENTED_EDGE ( 'NONE', *, *, #671, .F. ) ;
#108 = CARTESIAN_POINT ( 'NONE',  ( 0.000000000000000000, -1.734723475976807094E-15, 2.550000000000000266 ) ) ;
#109 = CARTESIAN_POINT ( 'NONE',  ( 3.918869757271529967E-16, -1.734723475976807094E-15, 8.949999999999999289 ) ) ;
#110 = EDGE_LOOP ( 'NONE', ( #934, #24 ) ) ;
#111 = DIRECTION ( 'NONE',  ( 1.000000000000000000, 0.000000000000000000, 0.000000000000000000 ) ) ;
#112 = STYLED_ITEM ( 'NONE', ( #999 ), #251 ) ;
#113 = ORIENTED_EDGE ( 'NONE', *, *, #418, .T. ) ;
#114 = CARTESIAN_POINT ( 'NONE',  ( -17.50000000000000000, 4.800000000000006040, -2.750000000000000888 ) ) ;
#115 = CARTESIAN_POINT ( 'NONE',  ( -17.50000000000000000, 5.799999999999999822, -5.750000000000000000 ) ) ;
#116 = VERTEX_POINT ( 'NONE', #560 ) ;
#117 = ORIENTED_EDGE ( 'NONE', *, *, #84, .T. ) ;
#118 = CARTESIAN_POINT ( 'NONE',  ( 17.50000000000000000, 4.800000000000004263, -5.750000000000000000 ) ) ;
#119 = VECTOR ( 'NONE', #565, 999.9999999999998863 ) ;
#120 = EDGE_CURVE ( 'NONE', #606, #154, #481, .T. ) ;
#121 = EDGE_CURVE ( 'NONE', #89, #116, #949, .T. ) ;
#122 = CARTESIAN_POINT ( 'NONE',  ( -17.50000000000000000, 5.799999999999999822, -5.750000000000000000 ) ) ;
#123 = CARTESIAN_POINT ( 'NONE',  ( 17.50000000000000000, -1.734723475976807094E-15, -8.950000000000001066 ) ) ;
#124 = ORIENTED_EDGE ( 'NONE', *, *, #853, .T. ) ;
#125 = DIRECTION ( 'NONE',  ( -0.000000000000000000, 1.000000000000000000, -0.000000000000000000 ) ) ;
#126 = LINE ( 'NONE', #462, #26 ) ;
#127 = EDGE_CURVE ( 'NONE', #606, #89, #1065, .T. ) ;
#128 = FACE_OUTER_BOUND ( 'NONE', #174, .T. ) ;
#129 = ADVANCED_FACE ( 'NONE', ( #579 ), #323, .T. ) ;
#130 = CARTESIAN_POINT ( 'NONE',  ( 17.50000000000000000, -1.734723475976807094E-15, -5.750000000000000000 ) ) ;
#131 = EDGE_CURVE ( 'NONE', #184, #916, #652, .T. ) ;
#132 = CARTESIAN_POINT ( 'NONE',  ( -17.50000000000000000, 1.000000000000000000, -5.750000000000000000 ) ) ;
#133 = AXIS2_PLACEMENT_3D ( 'NONE', #122, #484, #309 ) ;
#134 = CARTESIAN_POINT ( 'NONE',  ( 0.000000000000000000, -1.734723475976807094E-15, 2.550000000000000266 ) ) ;
#135 = CIRCLE ( 'NONE', #924, 5.000000000000000888 ) ;
#136 = DIRECTION ( 'NONE',  ( -0.000000000000000000, -1.000000000000000000, -0.000000000000000000 ) ) ;
#137 = CARTESIAN_POINT ( 'NONE',  ( 17.50000000000000000, 4.800000000000004263, -8.750000000000000000 ) ) ;
#138 = CLOSED_SHELL ( 'NONE', ( #150, #49, #18, #567, #280, #243, #395, #653, #1044, #215, #129, #85, #783, #935, #563, #556, #638, #143, #186, #631, #736, #584, #846, #980, #1037, #595, #264, #329, #534, #1016, #931, #250, #979, #1024, #910, #897, #305 ) ) ;
#139 = EDGE_CURVE ( 'NONE', #1075, #625, #1, .T. ) ;
#140 = CARTESIAN_POINT ( 'NONE',  ( 25.00000000000000000, 1.000000000000000000, -15.00000000000000000 ) ) ;
#141 = CARTESIAN_POINT ( 'NONE',  ( 17.50000000000000000, 5.799999999999999822, -5.750000000000000000 ) ) ;
#142 = DIRECTION ( 'NONE',  ( 0.000000000000000000, 1.000000000000000000, 0.000000000000000000 ) ) ;
#143 = ADVANCED_FACE ( 'NONE', ( #886, #900, #716, #721 ), #488, .F. ) ;
#144 = DIRECTION ( 'NONE',  ( 0.000000000000000000, 0.000000000000000000, -1.000000000000000000 ) ) ;
#145 = ORIENTED_EDGE ( 'NONE', *, *, #121, .F. ) ;
#146 = CARTESIAN_POINT ( 'NONE',  ( 17.50000000000000000, 5.799999999999999822, -7.750000000000008882 ) ) ;
#147 = ORIENTED_EDGE ( 'NONE', *, *, #1023, .F. ) ;
#148 = CARTESIAN_POINT ( 'NONE',  ( -17.50000000000000000, 1.500000000000000444, -5.750000000000000000 ) ) ;
#149 = DIRECTION ( 'NONE',  ( 0.000000000000000000, 1.000000000000000000, 0.000000000000000000 ) ) ;
#150 = ADVANCED_FACE ( 'NONE', ( #482 ), #19, .T. ) ;
#151 = DIRECTION ( 'NONE',  ( 0.000000000000000000, 0.000000000000000000, 1.000000000000000000 ) ) ;
#152 = AXIS2_PLACEMENT_3D ( 'NONE', #1072, #331, #657 ) ;
#153 = DIRECTION ( 'NONE',  ( -0.000000000000000000, -1.000000000000000000, -0.000000000000000000 ) ) ;
#154 = VERTEX_POINT ( 'NONE', #412 ) ;
#155 = PLANE ( 'NONE',  #1081 ) ;
#156 = ORIENTED_EDGE ( 'NONE', *, *, #714, .T. ) ;
#157 = EDGE_CURVE ( 'NONE', #625, #508, #240, .T. ) ;
#158 = FACE_OUTER_BOUND ( 'NONE', #25, .T. ) ;
#159 = CYLINDRICAL_SURFACE ( 'NONE', #960, 3.000000000000000000 ) ;
#160 = AXIS2_PLACEMENT_3D ( 'NONE', #141, #809, #57 ) ;
#161 = ORIENTED_EDGE ( 'NONE', *, *, #995, .F. ) ;
#162 = VERTEX_POINT ( 'NONE', #406 ) ;
#163 = AXIS2_PLACEMENT_3D ( 'NONE', #351, #669, #760 ) ;
#164 = DIRECTION ( 'NONE',  ( 0.000000000000000000, 0.000000000000000000, 1.000000000000000000 ) ) ;
#165 = DIRECTION ( 'NONE',  ( 0.000000000000000000, -1.000000000000000000, 0.000000000000000000 ) ) ;
#166 = VERTEX_POINT ( 'NONE', #312 ) ;
#167 = EDGE_CURVE ( 'NONE', #1075, #789, #401, .T. ) ;
#168 = ORIENTED_EDGE ( 'NONE', *, *, #615, .F. ) ;
#169 = DIRECTION ( 'NONE',  ( 0.000000000000000000, 0.000000000000000000, 1.000000000000000000 ) ) ;
#170 = CIRCLE ( 'NONE', #318, 2.000000000000008882 ) ;
#171 = DIRECTION ( 'NONE',  ( 0.000000000000000000, 0.000000000000000000, 1.000000000000000000 ) ) ;
#172 = AXIS2_PLACEMENT_3D ( 'NONE', #755, #672, #831 ) ;
#173 = VECTOR ( 'NONE', #55, 1000.000000000000000 ) ;
#174 = EDGE_LOOP ( 'NONE', ( #453, #1079, #538, #838 ) ) ;
#175 = ORIENTED_EDGE ( 'NONE', *, *, #662, .F. ) ;
#176 = AXIS2_PLACEMENT_3D ( 'NONE', #881, #34, #843 ) ;
#177 = LINE ( 'NONE', #521, #943 ) ;
#178 = CIRCLE ( 'NONE', #325, 2.999999999999999112 ) ;
#179 = CYLINDRICAL_SURFACE ( 'NONE', #598, 5.000000000000000000 ) ;
#180 = ORIENTED_EDGE ( 'NONE', *, *, #127, .F. ) ;
#181 = DIRECTION ( 'NONE',  ( 0.000000000000000000, 0.000000000000000000, -1.000000000000000000 ) ) ;
#182 = CARTESIAN_POINT ( 'NONE',  ( -17.50000000000000000, -1.734723475976807094E-15, -5.750000000000000000 ) ) ;
#183 = CARTESIAN_POINT ( 'NONE',  ( -17.50000000000000000, 1.500000000000000444, -4.049999999999999822 ) ) ;
#184 = VERTEX_POINT ( 'NONE', #731 ) ;
#185 = CARTESIAN_POINT ( 'NONE',  ( -20.00000000000000000, 0.000000000000000000, -9.999999999999998224 ) ) ;
#186 = ADVANCED_FACE ( 'NONE', ( #398 ), #330, .T. ) ;
#187 = FACE_OUTER_BOUND ( 'NONE', #268, .T. ) ;
#188 = EDGE_LOOP ( 'NONE', ( #464, #711, #865, #161 ) ) ;
#189 = ORIENTED_EDGE ( 'NONE', *, *, #386, .T. ) ;
#190 =( NAMED_UNIT ( * ) SI_UNIT ( $, .STERADIAN. ) SOLID_ANGLE_UNIT ( ) );
#191 = CIRCLE ( 'NONE', #345, 3.199999999999999734 ) ;
#192 = DIRECTION ( 'NONE',  ( 0.000000000000000000, 0.000000000000000000, 1.000000000000000000 ) ) ;
#193 = VECTOR ( 'NONE', #781, 1000.000000000000000 ) ;
#194 = VERTEX_POINT ( 'NONE', #894 ) ;
#195 = VERTEX_POINT ( 'NONE', #146 ) ;
#196 = LINE ( 'NONE', #540, #640 ) ;
#197 = VECTOR ( 'NONE', #316, 1000.000000000000000 ) ;
#198 = DIRECTION ( 'NONE',  ( 0.000000000000000000, -0.7071067811865482389, -0.7071067811865469066 ) ) ;
#199 = EDGE_LOOP ( 'NONE', ( #278, #842 ) ) ;
#200 = DIRECTION ( 'NONE',  ( -0.000000000000000000, -1.000000000000000000, -0.000000000000000000 ) ) ;
#201 = EDGE_CURVE ( 'NONE', #812, #353, #1018, .T. ) ;
#202 = DIRECTION ( 'NONE',  ( 0.000000000000000000, 0.000000000000000000, 1.000000000000000000 ) ) ;
#203 = LINE ( 'NONE', #216, #667 ) ;
#204 = ORIENTED_EDGE ( 'NONE', *, *, #817, .F. ) ;
#205 = EDGE_LOOP ( 'NONE', ( #678, #384, #784, #849 ) ) ;
#206 = CARTESIAN_POINT ( 'NONE',  ( 17.50000000000000000, -1.734723475976807094E-15, -5.750000000000000000 ) ) ;
#207 = VECTOR ( 'NONE', #522, 1000.000000000000000 ) ;
#208 = LINE ( 'NONE', #890, #173 ) ;
#209 = DIRECTION ( 'NONE',  ( 0.000000000000000000, 0.000000000000000000, 1.000000000000000000 ) ) ;
#210 = EDGE_LOOP ( 'NONE', ( #437, #261, #1089, #438 ) ) ;
#211 = ORIENTED_EDGE ( 'NONE', *, *, #422, .T. ) ;
#212 = CARTESIAN_POINT ( 'NONE',  ( 25.00000000000000000, 1.000000000000000000, -9.999999999999998224 ) ) ;
#213 = CARTESIAN_POINT ( 'NONE',  ( -17.50000000000000000, -1.734723475976807094E-15, -5.750000000000000000 ) ) ;
#214 = EDGE_CURVE ( 'NONE', #782, #747, #990, .T. ) ;
#215 = ADVANCED_FACE ( 'NONE', ( #801 ), #411, .T. ) ;
#216 = CARTESIAN_POINT ( 'NONE',  ( 17.50000000000000000, 5.799999999999999822, -2.749999999999999112 ) ) ;
#217 = ORIENTED_EDGE ( 'NONE', *, *, #937, .T. ) ;
#218 = EDGE_CURVE ( 'NONE', #618, #998, #1028, .T. ) ;
#219 = CIRCLE ( 'NONE', #914, 3.000000000000000888 ) ;
#220 = CARTESIAN_POINT ( 'NONE',  ( 25.00000000000000000, 1.000000000000000000, 9.999999999999998224 ) ) ;
#221 = DIRECTION ( 'NONE',  ( 0.000000000000000000, 0.000000000000000000, 1.000000000000000000 ) ) ;
#222 = DIRECTION ( 'NONE',  ( 0.000000000000000000, 0.000000000000000000, 1.000000000000000000 ) ) ;
#223 = CARTESIAN_POINT ( 'NONE',  ( 19.99999999999999645, 1.000000000000000000, -15.00000000000000000 ) ) ;
#224 = AXIS2_PLACEMENT_3D ( 'NONE', #225, #959, #400 ) ;
#225 = CARTESIAN_POINT ( 'NONE',  ( 17.50000000000000000, 0.000000000000000000, -5.750000000000000000 ) ) ;
#226 = AXIS2_PLACEMENT_3D ( 'NONE', #907, #754, #257 ) ;
#227 = CIRCLE ( 'NONE', #648, 2.000000000000008882 ) ;
#228 = DIRECTION ( 'NONE',  ( 0.000000000000000000, -0.000000000000000000, 1.000000000000000000 ) ) ;
#229 = CARTESIAN_POINT ( 'NONE',  ( 17.50000000000000000, 5.799999999999999822, -5.750000000000000000 ) ) ;
#230 = VECTOR ( 'NONE', #9, 1000.000000000000000 ) ;
#231 = CIRCLE ( 'NONE', #786, 3.199999999999999734 ) ;
#232 = CARTESIAN_POINT ( 'NONE',  ( 0.000000000000000000, -1.734723475976807094E-15, 5.750000000000000000 ) ) ;
#233 = VERTEX_POINT ( 'NONE', #50 ) ;
#234 = CARTESIAN_POINT ( 'NONE',  ( 2.081899558550498554E-16, 0.000000000000000000, 7.449999999999998401 ) ) ;
#235 = VERTEX_POINT ( 'NONE', #899 ) ;
#236 = CARTESIAN_POINT ( 'NONE',  ( 17.50000000000000000, 1.000000000000000000, -5.750000000000000000 ) ) ;
#237 = FACE_BOUND ( 'NONE', #354, .T. ) ;
#238 = ORIENTED_EDGE ( 'NONE', *, *, #407, .F. ) ;
#239 = FACE_OUTER_BOUND ( 'NONE', #988, .T. ) ;
#240 = LINE ( 'NONE', #985, #769 ) ;
#241 = EDGE_CURVE ( 'NONE', #4, #587, #692, .T. ) ;
#242 = LINE ( 'NONE', #1077, #1010 ) ;
#243 = ADVANCED_FACE ( 'NONE', ( #591 ), #263, .F. ) ;
#244 = CARTESIAN_POINT ( 'NONE',  ( 0.000000000000000000, 5.799999999999999822, 4.050000000000001599 ) ) ;
#245 = ORIENTED_EDGE ( 'NONE', *, *, #337, .F. ) ;
#246 = DIRECTION ( 'NONE',  ( 0.000000000000000000, 0.000000000000000000, -1.000000000000000000 ) ) ;
#247 = AXIS2_PLACEMENT_3D ( 'NONE', #505, #828, #432 ) ;
#248 = DIRECTION ( 'NONE',  ( -0.000000000000000000, 1.000000000000000000, -0.000000000000000000 ) ) ;
#249 = ORIENTED_EDGE ( 'NONE', *, *, #820, .T. ) ;
#250 = ADVANCED_FACE ( 'NONE', ( #158 ), #80, .T. ) ;
#251 = MANIFOLD_SOLID_BREP ( 'Ô²½Ç1', #138 ) ;
#252 = VERTEX_POINT ( 'NONE', #1080 ) ;
#253 =( NAMED_UNIT ( * ) PLANE_ANGLE_UNIT ( ) SI_UNIT ( $, .RADIAN. ) );
#254 = LINE ( 'NONE', #901, #321 ) ;
#255 = EDGE_LOOP ( 'NONE', ( #636, #507 ) ) ;
#256 = CIRCLE ( 'NONE', #313, 5.000000000000000000 ) ;
#257 = DIRECTION ( 'NONE',  ( 0.000000000000000000, 0.000000000000000000, -1.000000000000000000 ) ) ;
#258 = EDGE_CURVE ( 'NONE', #621, #353, #427, .T. ) ;
#259 = CARTESIAN_POINT ( 'NONE',  ( 20.00000000000000000, 1.000000000000000000, 9.999999999999998224 ) ) ;
#260 = VERTEX_POINT ( 'NONE', #913 ) ;
#261 = ORIENTED_EDGE ( 'NONE', *, *, #342, .T. ) ;
#262 = DIRECTION ( 'NONE',  ( 0.000000000000000000, 0.000000000000000000, -1.000000000000000000 ) ) ;
#263 = CONICAL_SURFACE ( 'NONE', #458, 3.199999999999999734, 0.7853981633974479459 ) ;
#264 = ADVANCED_FACE ( 'NONE', ( #239 ), #830, .F. ) ;
#265 = CARTESIAN_POINT ( 'NONE',  ( -17.50000000000000000, 5.799999999999999822, -8.749999999999998224 ) ) ;
#266 = CONICAL_SURFACE ( 'NONE', #152, 2.000000000000008882, 0.7853981633974466137 ) ;
#267 = EDGE_LOOP ( 'NONE', ( #793, #279 ) ) ;
#268 = EDGE_LOOP ( 'NONE', ( #434, #859, #295, #296 ) ) ;
#269 = ORIENTED_EDGE ( 'NONE', *, *, #861, .F. ) ;
#270 = DIRECTION ( 'NONE',  ( 0.000000000000000000, 0.000000000000000000, -1.000000000000000000 ) ) ;
#271 = AXIS2_PLACEMENT_3D ( 'NONE', #964, #408, #404 ) ;
#272 = DIRECTION ( 'NONE',  ( 0.000000000000000000, -1.000000000000000000, 0.000000000000000000 ) ) ;
#273 = EDGE_LOOP ( 'NONE', ( #14, #877, #590, #866 ) ) ;
#274 = DIRECTION ( 'NONE',  ( 0.000000000000000000, -1.000000000000000000, 0.000000000000000000 ) ) ;
#275 = CARTESIAN_POINT ( 'NONE',  ( 0.000000000000000000, 0.000000000000000000, 0.000000000000000000 ) ) ;
#276 = DIRECTION ( 'NONE',  ( -0.000000000000000000, -1.000000000000000000, -0.000000000000000000 ) ) ;
#277 = CARTESIAN_POINT ( 'NONE',  ( -20.00000000000000000, 0.000000000000000000, -15.00000000000000000 ) ) ;
#278 = ORIENTED_EDGE ( 'NONE', *, *, #685, .T. ) ;
#279 = ORIENTED_EDGE ( 'NONE', *, *, #486, .T. ) ;
#280 = ADVANCED_FACE ( 'NONE', ( #424 ), #417, .F. ) ;
#281 = CARTESIAN_POINT ( 'NONE',  ( 19.99999999999999645, 0.000000000000000000, -9.999999999999998224 ) ) ;
#282 = AXIS2_PLACEMENT_3D ( 'NONE', #884, #1053, #558 ) ;
#283 = ORIENTED_EDGE ( 'NONE', *, *, #817, .T. ) ;
#284 = MECHANICAL_DESIGN_GEOMETRIC_PRESENTATION_REPRESENTATION (  '', ( #112 ), #566 ) ;
#285 = CIRCLE ( 'NONE', #693, 5.000000000000000888 ) ;
#286 = PRODUCT_CONTEXT ( 'NONE', #1073, 'mechanical' ) ;
#287 = AXIS2_PLACEMENT_3D ( 'NONE', #236, #430, #493 ) ;
#288 = DIRECTION ( 'NONE',  ( 0.000000000000000000, 0.000000000000000000, -1.000000000000000000 ) ) ;
#289 = VECTOR ( 'NONE', #601, 1000.000000000000000 ) ;
#290 = ORIENTED_EDGE ( 'NONE', *, *, #258, .T. ) ;
#291 = EDGE_CURVE ( 'NONE', #491, #782, #256, .T. ) ;
#292 = EDGE_CURVE ( 'NONE', #260, #586, #503, .T. ) ;
#293 = CARTESIAN_POINT ( 'NONE',  ( 0.000000000000000000, 1.000000000000000000, 5.750000000000000000 ) ) ;
#294 = LINE ( 'NONE', #936, #193 ) ;
#295 = ORIENTED_EDGE ( 'NONE', *, *, #532, .F. ) ;
#296 = ORIENTED_EDGE ( 'NONE', *, *, #131, .F. ) ;
#297 = SHAPE_DEFINITION_REPRESENTATION ( #335, #1036 ) ;
#298 = ORIENTED_EDGE ( 'NONE', *, *, #976, .F. ) ;
#299 = DIRECTION ( 'NONE',  ( 0.000000000000000000, -1.000000000000000000, 0.000000000000000000 ) ) ;
#300 = DIRECTION ( 'NONE',  ( 0.000000000000000000, 1.000000000000000000, 0.000000000000000000 ) ) ;
#301 = ORIENTED_EDGE ( 'NONE', *, *, #557, .T. ) ;
#302 = CARTESIAN_POINT ( 'NONE',  ( -25.00000000000000000, 0.000000000000000000, -15.00000000000000000 ) ) ;
#303 = CIRCLE ( 'NONE', #11, 1.699999999999998401 ) ;
#304 = CARTESIAN_POINT ( 'NONE',  ( 17.50000000000000000, 5.799999999999999822, -5.750000000000000000 ) ) ;
#305 = ADVANCED_FACE ( 'NONE', ( #509 ), #428, .T. ) ;
#306 = LINE ( 'NONE', #109, #889 ) ;
#307 = ORIENTED_EDGE ( 'NONE', *, *, #340, .F. ) ;
#308 = LINE ( 'NONE', #390, #732 ) ;
#309 = DIRECTION ( 'NONE',  ( 0.000000000000000000, 0.000000000000000000, 1.000000000000000000 ) ) ;
#310 = EDGE_CURVE ( 'NONE', #508, #546, #840, .T. ) ;
#311 = AXIS2_PLACEMENT_3D ( 'NONE', #961, #43, #209 ) ;
#312 = CARTESIAN_POINT ( 'NONE',  ( 17.50000000000000000, 4.800000000000004263, -2.749999999999999112 ) ) ;
#313 = AXIS2_PLACEMENT_3D ( 'NONE', #918, #676, #164 ) ;
#314 = FACE_OUTER_BOUND ( 'NONE', #706, .T. ) ;
#315 = DIRECTION ( 'NONE',  ( 1.000000000000000000, 0.000000000000000000, 0.000000000000000000 ) ) ;
#316 = DIRECTION ( 'NONE',  ( -0.000000000000000000, -1.000000000000000000, -0.000000000000000000 ) ) ;
#317 = CARTESIAN_POINT ( 'NONE',  ( 17.50000000000000000, 1.500000000000000444, -5.750000000000000000 ) ) ;
#318 = AXIS2_PLACEMENT_3D ( 'NONE', #799, #569, #704 ) ;
#319 = DIRECTION ( 'NONE',  ( 0.000000000000000000, -0.000000000000000000, 1.000000000000000000 ) ) ;
#320 = AXIS2_PLACEMENT_3D ( 'NONE', #597, #1087, #151 ) ;
#321 = VECTOR ( 'NONE', #592, 999.9999999999998863 ) ;
#322 = CIRCLE ( 'NONE', #1083, 1.699999999999998401 ) ;
#323 = CYLINDRICAL_SURFACE ( 'NONE', #504, 3.000000000000000888 ) ;
#324 = DIRECTION ( 'NONE',  ( 0.000000000000000000, 0.000000000000000000, 1.000000000000000000 ) ) ;
#325 = AXIS2_PLACEMENT_3D ( 'NONE', #132, #810, #797 ) ;
#326 = CARTESIAN_POINT ( 'NONE',  ( -17.50000000000000000, -1.734723475976807094E-15, -5.750000000000000000 ) ) ;
#327 = ORIENTED_EDGE ( 'NONE', *, *, #291, .F. ) ;
#328 =( NAMED_UNIT ( * ) SI_UNIT ( $, .STERADIAN. ) SOLID_ANGLE_UNIT ( ) );
#329 = ADVANCED_FACE ( 'NONE', ( #435 ), #20, .F. ) ;
#330 = CYLINDRICAL_SURFACE ( 'NONE', #377, 2.999999999999999112 ) ;
#331 = DIRECTION ( 'NONE',  ( 0.000000000000000000, -1.000000000000000000, 0.000000000000000000 ) ) ;
#332 = FACE_OUTER_BOUND ( 'NONE', #35, .T. ) ;
#333 = ORIENTED_EDGE ( 'NONE', *, *, #853, .F. ) ;
#334 = DIRECTION ( 'NONE',  ( -0.000000000000000000, -1.000000000000000000, -0.000000000000000000 ) ) ;
#335 = PRODUCT_DEFINITION_SHAPE ( 'NONE', 'NONE',  #350 ) ;
#336 = ORIENTED_EDGE ( 'NONE', *, *, #908, .F. ) ;
#337 = EDGE_CURVE ( 'NONE', #789, #508, #773, .T. ) ;
#338 = CARTESIAN_POINT ( 'NONE',  ( 17.50000000000000000, 5.799999999999999822, -5.750000000000000000 ) ) ;
#339 = EDGE_LOOP ( 'NONE', ( #673, #117, #8, #349 ) ) ;
#340 = EDGE_CURVE ( 'NONE', #613, #689, #196, .T. ) ;
#341 = VECTOR ( 'NONE', #655, 1000.000000000000000 ) ;
#342 = EDGE_CURVE ( 'NONE', #730, #967, #219, .T. ) ;
#343 = CARTESIAN_POINT ( 'NONE',  ( 0.000000000000000000, 5.799999999999999822, 5.750000000000000000 ) ) ;
#344 = CIRCLE ( 'NONE', #746, 3.000000000000000888 ) ;
#345 = AXIS2_PLACEMENT_3D ( 'NONE', #951, #200, #958 ) ;
#346 = CARTESIAN_POINT ( 'NONE',  ( 0.000000000000000000, 5.799999999999999822, 5.750000000000000000 ) ) ;
#347 = AXIS2_PLACEMENT_3D ( 'NONE', #1045, #300, #358 ) ;
#348 = ORIENTED_EDGE ( 'NONE', *, *, #976, .T. ) ;
#349 = ORIENTED_EDGE ( 'NONE', *, *, #798, .T. ) ;
#350 = PRODUCT_DEFINITION ( 'æœ', '', #39, #758 ) ;
#351 = CARTESIAN_POINT ( 'NONE',  ( 20.00000000000000000, 1.000000000000000000, 9.999999999999998224 ) ) ;
#352 = LINE ( 'NONE', #65, #496 ) ;
#353 = VERTEX_POINT ( 'NONE', #680 ) ;
#354 = EDGE_LOOP ( 'NONE', ( #1004, #290 ) ) ;
#355 = FILL_AREA_STYLE ('',( #497 ) ) ;
#356 = DIRECTION ( 'NONE',  ( 0.000000000000000000, 0.000000000000000000, -1.000000000000000000 ) ) ;
#357 = EDGE_LOOP ( 'NONE', ( #298, #333, #363, #955 ) ) ;
#358 = DIRECTION ( 'NONE',  ( 0.000000000000000000, 0.000000000000000000, 1.000000000000000000 ) ) ;
#359 = VERTEX_POINT ( 'NONE', #684 ) ;
#360 = DIRECTION ( 'NONE',  ( 0.000000000000000000, 0.000000000000000000, 1.000000000000000000 ) ) ;
#361 = CARTESIAN_POINT ( 'NONE',  ( 0.000000000000000000, 5.799999999999999822, 5.750000000000000000 ) ) ;
#362 = CIRCLE ( 'NONE', #64, 1.699999999999998401 ) ;
#363 = ORIENTED_EDGE ( 'NONE', *, *, #1013, .F. ) ;
#364 = DIRECTION ( 'NONE',  ( 0.000000000000000000, 0.000000000000000000, 1.000000000000000000 ) ) ;
#365 = DIRECTION ( 'NONE',  ( 0.000000000000000000, 0.000000000000000000, 1.000000000000000000 ) ) ;
#366 = CARTESIAN_POINT ( 'NONE',  ( -20.00000000000000000, 1.000000000000000000, 9.999999999999998224 ) ) ;
#367 = DIRECTION ( 'NONE',  ( -0.000000000000000000, -1.000000000000000000, -0.000000000000000000 ) ) ;
#368 = ORIENTED_EDGE ( 'NONE', *, *, #796, .T. ) ;
#369 = EDGE_CURVE ( 'NONE', #252, #1041, #1057, .T. ) ;
#370 = ORIENTED_EDGE ( 'NONE', *, *, #15, .T. ) ;
#371 = DIRECTION ( 'NONE',  ( 0.000000000000000000, -1.000000000000000000, 0.000000000000000000 ) ) ;
#372 = ORIENTED_EDGE ( 'NONE', *, *, #310, .F. ) ;
#373 = CARTESIAN_POINT ( 'NONE',  ( 2.449293598294716275E-16, 5.799999999999999822, 7.750000000000008882 ) ) ;
#374 = EDGE_CURVE ( 'NONE', #967, #730, #860, .T. ) ;
#375 = AXIS2_PLACEMENT_3D ( 'NONE', #468, #480, #965 ) ;
#376 = ORIENTED_EDGE ( 'NONE', *, *, #60, .F. ) ;
#377 = AXIS2_PLACEMENT_3D ( 'NONE', #656, #1054, #725 ) ;
#378 = AXIS2_PLACEMENT_3D ( 'NONE', #304, #544, #221 ) ;
#379 = DIRECTION ( 'NONE',  ( 0.000000000000000000, -0.7071067811865487940, -0.7071067811865463515 ) ) ;
#380 = AXIS2_PLACEMENT_3D ( 'NONE', #387, #274, #181 ) ;
#381 = DIRECTION ( 'NONE',  ( -0.000000000000000000, 1.000000000000000000, -0.000000000000000000 ) ) ;
#382 = ORIENTED_EDGE ( 'NONE', *, *, #36, .T. ) ;
#383 = CIRCLE ( 'NONE', #603, 3.200000000000001510 ) ;
#384 = ORIENTED_EDGE ( 'NONE', *, *, #839, .T. ) ;
#385 = DIRECTION ( 'NONE',  ( -0.000000000000000000, -1.000000000000000000, -0.000000000000000000 ) ) ;
#386 = EDGE_CURVE ( 'NONE', #166, #812, #879, .T. ) ;
#387 = CARTESIAN_POINT ( 'NONE',  ( -17.50000000000000000, 5.799999999999999822, -5.750000000000000000 ) ) ;
#388 = EDGE_LOOP ( 'NONE', ( #452, #757, #700, #756 ) ) ;
#389 = ORIENTED_EDGE ( 'NONE', *, *, #73, .T. ) ;
#390 = CARTESIAN_POINT ( 'NONE',  ( -25.00000000000000000, 1.000000000000000000, -15.00000000000000000 ) ) ;
#391 = FACE_OUTER_BOUND ( 'NONE', #903, .T. ) ;
#392 = LINE ( 'NONE', #1049, #1032 ) ;
#393 = ORIENTED_EDGE ( 'NONE', *, *, #486, .F. ) ;
#394 = DIRECTION ( 'NONE',  ( 0.000000000000000000, 0.000000000000000000, -1.000000000000000000 ) ) ;
#395 = ADVANCED_FACE ( 'NONE', ( #604 ), #22, .F. ) ;
#396 = CIRCLE ( 'NONE', #923, 2.999999999999999112 ) ;
#397 = FACE_OUTER_BOUND ( 'NONE', #459, .T. ) ;
#398 = FACE_OUTER_BOUND ( 'NONE', #552, .T. ) ;
#399 = FACE_OUTER_BOUND ( 'NONE', #1007, .T. ) ;
#400 = DIRECTION ( 'NONE',  ( 0.000000000000000000, 0.000000000000000000, -1.000000000000000000 ) ) ;
#401 = LINE ( 'NONE', #234, #718 ) ;
#402 = VECTOR ( 'NONE', #445, 1000.000000000000000 ) ;
#403 = AXIS2_PLACEMENT_3D ( 'NONE', #28, #619, #768 ) ;
#404 = DIRECTION ( 'NONE',  ( 0.000000000000000000, 0.000000000000000000, -1.000000000000000000 ) ) ;
#405 = DIRECTION ( 'NONE',  ( 0.000000000000000000, 0.000000000000000000, -1.000000000000000000 ) ) ;
#406 = CARTESIAN_POINT ( 'NONE',  ( -17.50000000000000000, 5.799999999999999822, -3.749999999999991118 ) ) ;
#407 = EDGE_CURVE ( 'NONE', #195, #812, #932, .T. ) ;
#408 = DIRECTION ( 'NONE',  ( 1.000000000000000000, 0.000000000000000000, 0.000000000000000000 ) ) ;
#409 = CARTESIAN_POINT ( 'NONE',  ( 17.50000000000000000, 1.000000000000000000, -2.749999999999999112 ) ) ;
#410 = ORIENTED_EDGE ( 'NONE', *, *, #610, .F. ) ;
#411 = CYLINDRICAL_SURFACE ( 'NONE', #727, 3.000000000000000000 ) ;
#412 = CARTESIAN_POINT ( 'NONE',  ( -17.50000000000000000, 4.800000000000006040, -8.749999999999998224 ) ) ;
#413 = CARTESIAN_POINT ( 'NONE',  ( 0.000000000000000000, 4.800000000000004263, 2.750000000000000000 ) ) ;
#414 = VECTOR ( 'NONE', #888, 1000.000000000000000 ) ;
#415 = CARTESIAN_POINT ( 'NONE',  ( -17.50000000000000000, 1.500000000000000444, -5.750000000000000000 ) ) ;
#416 = ORIENTED_EDGE ( 'NONE', *, *, #439, .F. ) ;
#417 = CYLINDRICAL_SURFACE ( 'NONE', #559, 1.699999999999998401 ) ;
#418 = EDGE_CURVE ( 'NONE', #998, #618, #344, .T. ) ;
#419 = CARTESIAN_POINT ( 'NONE',  ( -17.50000000000000000, 5.799999999999999822, -5.750000000000000000 ) ) ;
#420 = EDGE_CURVE ( 'NONE', #663, #456, #780, .T. ) ;
#421 = EDGE_LOOP ( 'NONE', ( #113, #762 ) ) ;
#422 = EDGE_CURVE ( 'NONE', #518, #260, #568, .T. ) ;
#423 = ORIENTED_EDGE ( 'NONE', *, *, #15, .F. ) ;
#424 = FACE_OUTER_BOUND ( 'NONE', #388, .T. ) ;
#425 = DIRECTION ( 'NONE',  ( 0.000000000000000000, 0.000000000000000000, -1.000000000000000000 ) ) ;
#426 = CONICAL_SURFACE ( 'NONE', #1017, 3.199999999999999734, 0.7853981633974473908 ) ;
#427 = CIRCLE ( 'NONE', #506, 3.000000000000000888 ) ;
#428 = CYLINDRICAL_SURFACE ( 'NONE', #163, 5.000000000000000888 ) ;
#429 = VECTOR ( 'NONE', #379, 1000.000000000000000 ) ;
#430 = DIRECTION ( 'NONE',  ( -0.000000000000000000, -1.000000000000000000, -0.000000000000000000 ) ) ;
#431 = DIRECTION ( 'NONE',  ( -0.000000000000000000, -1.000000000000000000, -0.000000000000000000 ) ) ;
#432 = DIRECTION ( 'NONE',  ( 0.000000000000000000, 0.000000000000000000, 1.000000000000000000 ) ) ;
#433 = ORIENTED_EDGE ( 'NONE', *, *, #374, .T. ) ;
#434 = ORIENTED_EDGE ( 'NONE', *, *, #447, .F. ) ;
#435 = FACE_OUTER_BOUND ( 'NONE', #701, .T. ) ;
#436 = CARTESIAN_POINT ( 'NONE',  ( 0.000000000000000000, 1.000000000000000000, 2.750000000000000000 ) ) ;
#437 = ORIENTED_EDGE ( 'NONE', *, *, #36, .F. ) ;
#438 = ORIENTED_EDGE ( 'NONE', *, *, #218, .F. ) ;
#439 = EDGE_CURVE ( 'NONE', #872, #824, #516, .T. ) ;
#440 = DIRECTION ( 'NONE',  ( 0.000000000000000000, 0.000000000000000000, 1.000000000000000000 ) ) ;
#441 = EDGE_CURVE ( 'NONE', #954, #730, #12, .T. ) ;
#442 = DIRECTION ( 'NONE',  ( 0.000000000000000000, 1.000000000000000000, 0.000000000000000000 ) ) ;
#443 = AXIS2_PLACEMENT_3D ( 'NONE', #419, #87, #588 ) ;
#444 = ORIENTED_EDGE ( 'NONE', *, *, #292, .F. ) ;
#445 = DIRECTION ( 'NONE',  ( 0.000000000000000000, -1.000000000000000000, 0.000000000000000000 ) ) ;
#446 = DIRECTION ( 'NONE',  ( -0.000000000000000000, -1.000000000000000000, -0.000000000000000000 ) ) ;
#447 = EDGE_CURVE ( 'NONE', #747, #184, #285, .T. ) ;
#448 = ORIENTED_EDGE ( 'NONE', *, *, #759, .F. ) ;
#449 = VERTEX_POINT ( 'NONE', #609 ) ;
#450 = CARTESIAN_POINT ( 'NONE',  ( 0.000000000000000000, 0.000000000000000000, 5.750000000000000000 ) ) ;
#451 = AXIS2_PLACEMENT_3D ( 'NONE', #454, #6, #857 ) ;
#452 = ORIENTED_EDGE ( 'NONE', *, *, #861, .T. ) ;
#453 = ORIENTED_EDGE ( 'NONE', *, *, #461, .F. ) ;
#454 = CARTESIAN_POINT ( 'NONE',  ( 0.000000000000000000, -1.734723475976807094E-15, 5.750000000000000000 ) ) ;
#455 = FACE_OUTER_BOUND ( 'NONE', #1027, .T. ) ;
#456 = VERTEX_POINT ( 'NONE', #691 ) ;
#457 = ORIENTED_EDGE ( 'NONE', *, *, #713, .F. ) ;
#458 = AXIS2_PLACEMENT_3D ( 'NONE', #476, #660, #825 ) ;
#459 = EDGE_LOOP ( 'NONE', ( #416, #217, #911, #77 ) ) ;
#460 = CONICAL_SURFACE ( 'NONE', #1066, 3.200000000000001510, 0.7853981633974480570 ) ;
#461 = EDGE_CURVE ( 'NONE', #954, #235, #227, .T. ) ;
#462 = CARTESIAN_POINT ( 'NONE',  ( -17.50000000000000000, 0.000000000000000000, -4.050000000000001599 ) ) ;
#463 = LINE ( 'NONE', #524, #696 ) ;
#464 = ORIENTED_EDGE ( 'NONE', *, *, #1023, .T. ) ;
#465 = AXIS2_PLACEMENT_3D ( 'NONE', #873, #1051, #394 ) ;
#466 = ORIENTED_EDGE ( 'NONE', *, *, #737, .T. ) ;
#467 = CARTESIAN_POINT ( 'NONE',  ( 17.50000000000000000, 5.799999999999999822, -5.750000000000000000 ) ) ;
#468 = CARTESIAN_POINT ( 'NONE',  ( 17.50000000000000000, -1.734723475976807094E-15, -5.750000000000000000 ) ) ;
#469 = LINE ( 'NONE', #545, #230 ) ;
#470 = EDGE_LOOP ( 'NONE', ( #547, #1069, #1039, #927, #735, #211, #69, #707 ) ) ;
#471 = DIRECTION ( 'NONE',  ( -0.000000000000000000, -1.000000000000000000, -0.000000000000000000 ) ) ;
#472 = CARTESIAN_POINT ( 'NONE',  ( -20.00000000000000000, 0.000000000000000000, 9.999999999999998224 ) ) ;
#473 = EDGE_CURVE ( 'NONE', #235, #967, #863, .T. ) ;
#474 = CARTESIAN_POINT ( 'NONE',  ( -17.50000000000000000, 1.000000000000000000, -2.750000000000000888 ) ) ;
#475 = AXIS2_PLACEMENT_3D ( 'NONE', #898, #729, #494 ) ;
#476 = CARTESIAN_POINT ( 'NONE',  ( 0.000000000000000000, -1.734723475976807094E-15, 5.750000000000000000 ) ) ;
#477 = DIRECTION ( 'NONE',  ( 0.000000000000000000, 0.000000000000000000, 1.000000000000000000 ) ) ;
#478 = CIRCLE ( 'NONE', #378, 2.000000000000008882 ) ;
#479 = AXIS2_PLACEMENT_3D ( 'NONE', #361, #442, #848 ) ;
#480 = DIRECTION ( 'NONE',  ( -0.000000000000000000, -1.000000000000000000, -0.000000000000000000 ) ) ;
#481 = CIRCLE ( 'NONE', #311, 2.999999999999999112 ) ;
#482 = FACE_OUTER_BOUND ( 'NONE', #770, .T. ) ;
#483 = CARTESIAN_POINT ( 'NONE',  ( 19.99999999999999645, 0.000000000000000000, 15.00000000000000000 ) ) ;
#484 = DIRECTION ( 'NONE',  ( 0.000000000000000000, 1.000000000000000000, 0.000000000000000000 ) ) ;
#485 = EDGE_CURVE ( 'NONE', #916, #814, #177, .T. ) ;
#486 = EDGE_CURVE ( 'NONE', #102, #195, #478, .T. ) ;
#487 = AXIS2_PLACEMENT_3D ( 'NONE', #679, #1008, #222 ) ;
#488 = PLANE ( 'NONE',  #670 ) ;
#489 = DIRECTION ( 'NONE',  ( 0.000000000000000000, 0.000000000000000000, 1.000000000000000000 ) ) ;
#490 = LINE ( 'NONE', #302, #553 ) ;
#491 = VERTEX_POINT ( 'NONE', #643 ) ;
#492 = CARTESIAN_POINT ( 'NONE',  ( 17.50000000000000000, 5.799999999999999822, -8.750000000000000000 ) ) ;
#493 = DIRECTION ( 'NONE',  ( 0.000000000000000000, 0.000000000000000000, 1.000000000000000000 ) ) ;
#494 = DIRECTION ( 'NONE',  ( 0.000000000000000000, -0.000000000000000000, 1.000000000000000000 ) ) ;
#495 = ORIENTED_EDGE ( 'NONE', *, *, #337, .T. ) ;
#496 = VECTOR ( 'NONE', #585, 1000.000000000000000 ) ;
#497 = FILL_AREA_STYLE_COLOUR ( '', #834 ) ;
#498 = DIRECTION ( 'NONE',  ( -0.000000000000000000, -1.000000000000000000, -0.000000000000000000 ) ) ;
#499 = EDGE_CURVE ( 'NONE', #252, #359, #208, .T. ) ;
#500 = EDGE_LOOP ( 'NONE', ( #983, #168, #502, #525 ) ) ;
#501 = CARTESIAN_POINT ( 'NONE',  ( 0.000000000000000000, 1.000000000000000000, 0.000000000000000000 ) ) ;
#502 = ORIENTED_EDGE ( 'NONE', *, *, #42, .T. ) ;
#503 = LINE ( 'NONE', #741, #71 ) ;
#504 = AXIS2_PLACEMENT_3D ( 'NONE', #62, #136, #971 ) ;
#505 = CARTESIAN_POINT ( 'NONE',  ( -20.00000000000000000, 1.000000000000000000, -9.999999999999998224 ) ) ;
#506 = AXIS2_PLACEMENT_3D ( 'NONE', #666, #431, #989 ) ;
#507 = ORIENTED_EDGE ( 'NONE', *, *, #420, .F. ) ;
#508 = VERTEX_POINT ( 'NONE', #52 ) ;
#509 = FACE_OUTER_BOUND ( 'NONE', #357, .T. ) ;
#510 = CARTESIAN_POINT ( 'NONE',  ( -17.50000000000000000, 5.799999999999999822, -5.750000000000000000 ) ) ;
#511 = ORIENTED_EDGE ( 'NONE', *, *, #420, .T. ) ;
#512 = CIRCLE ( 'NONE', #133, 1.699999999999998401 ) ;
#513 = ORIENTED_EDGE ( 'NONE', *, *, #557, .F. ) ;
#514 = PRESENTATION_LAYER_ASSIGNMENT (  '', '', ( #112 ) ) ;
#515 = SURFACE_STYLE_FILL_AREA ( #355 ) ;
#516 = CIRCLE ( 'NONE', #82, 1.700000000000000178 ) ;
#517 = CARTESIAN_POINT ( 'NONE',  ( 0.000000000000000000, 5.799999999999999822, 5.750000000000000000 ) ) ;
#518 = VERTEX_POINT ( 'NONE', #785 ) ;
#519 = CIRCLE ( 'NONE', #347, 5.000000000000000000 ) ;
#520 = VECTOR ( 'NONE', #471, 1000.000000000000000 ) ;
#521 = CARTESIAN_POINT ( 'NONE',  ( -25.00000000000000000, 0.000000000000000000, 15.00000000000000000 ) ) ;
#522 = DIRECTION ( 'NONE',  ( -0.000000000000000000, -1.000000000000000000, -0.000000000000000000 ) ) ;
#523 = ORIENTED_EDGE ( 'NONE', *, *, #942, .T. ) ;
#524 = CARTESIAN_POINT ( 'NONE',  ( -17.50000000000000000, -1.734723475976807094E-15, -8.949999999999999289 ) ) ;
#525 = ORIENTED_EDGE ( 'NONE', *, *, #1052, .T. ) ;
#526 = DIRECTION ( 'NONE',  ( 0.000000000000000000, 0.000000000000000000, -1.000000000000000000 ) ) ;
#527 = EDGE_CURVE ( 'NONE', #508, #789, #322, .T. ) ;
#528 = DIRECTION ( 'NONE',  ( -0.000000000000000000, -1.000000000000000000, -0.000000000000000000 ) ) ;
#529 = FACE_OUTER_BOUND ( 'NONE', #205, .T. ) ;
#530 = ORIENTED_EDGE ( 'NONE', *, *, #56, .F. ) ;
#531 = DIRECTION ( 'NONE',  ( 0.000000000000000000, 1.000000000000000000, 0.000000000000000000 ) ) ;
#532 = EDGE_CURVE ( 'NONE', #916, #359, #135, .T. ) ;
#533 = FACE_OUTER_BOUND ( 'NONE', #775, .T. ) ;
#534 = ADVANCED_FACE ( 'NONE', ( #791 ), #40, .F. ) ;
#535 = CIRCLE ( 'NONE', #100, 2.000000000000008882 ) ;
#536 = ORIENTED_EDGE ( 'NONE', *, *, #99, .T. ) ;
#537 = CARTESIAN_POINT ( 'NONE',  ( 0.000000000000000000, 5.799999999999999822, 5.750000000000000000 ) ) ;
#538 = ORIENTED_EDGE ( 'NONE', *, *, #374, .F. ) ;
#539 = ORIENTED_EDGE ( 'NONE', *, *, #778, .T. ) ;
#540 = CARTESIAN_POINT ( 'NONE',  ( -17.50000000000000000, 0.000000000000000000, -7.449999999999998401 ) ) ;
#541 = VERTEX_POINT ( 'NONE', #719 ) ;
#542 = EDGE_LOOP ( 'NONE', ( #70, #993, #495, #93 ) ) ;
#543 = DIRECTION ( 'NONE',  ( 0.000000000000000000, 0.000000000000000000, 1.000000000000000000 ) ) ;
#544 = DIRECTION ( 'NONE',  ( 0.000000000000000000, 1.000000000000000000, 0.000000000000000000 ) ) ;
#545 = CARTESIAN_POINT ( 'NONE',  ( -17.50000000000000000, 5.799999999999999822, -3.749999999999991118 ) ) ;
#546 = VERTEX_POINT ( 'NONE', #134 ) ;
#547 = ORIENTED_EDGE ( 'NONE', *, *, #485, .F. ) ;
#548 = CIRCLE ( 'NONE', #779, 5.000000000000000888 ) ;
#549 = CARTESIAN_POINT ( 'NONE',  ( -25.00000000000000000, 1.000000000000000000, -9.999999999999998224 ) ) ;
#550 = DIRECTION ( 'NONE',  ( -0.000000000000000000, -1.000000000000000000, -0.000000000000000000 ) ) ;
#551 = EDGE_LOOP ( 'NONE', ( #513, #594 ) ) ;
#552 = EDGE_LOOP ( 'NONE', ( #180, #67, #788, #145 ) ) ;
#553 = VECTOR ( 'NONE', #803, 1000.000000000000000 ) ;
#554 = ORIENTED_EDGE ( 'NONE', *, *, #937, .F. ) ;
#555 = CARTESIAN_POINT ( 'NONE',  ( 17.50000000000000000, 0.000000000000000000, -7.449999999999998401 ) ) ;
#556 = ADVANCED_FACE ( 'NONE', ( #1063 ), #562, .T. ) ;
#557 = EDGE_CURVE ( 'NONE', #613, #1050, #512, .T. ) ;
#558 = DIRECTION ( 'NONE',  ( -1.000000000000000000, 0.000000000000000000, -0.000000000000000000 ) ) ;
#559 = AXIS2_PLACEMENT_3D ( 'NONE', #78, #578, #246 ) ;
#560 = CARTESIAN_POINT ( 'NONE',  ( -17.50000000000000000, 1.000000000000000000, -8.749999999999998224 ) ) ;
#561 = DIRECTION ( 'NONE',  ( 0.000000000000000000, 1.000000000000000000, 0.000000000000000000 ) ) ;
#562 = PLANE ( 'NONE',  #282 ) ;
#563 = ADVANCED_FACE ( 'NONE', ( #391 ), #639, .T. ) ;
#564 = DIRECTION ( 'NONE',  ( 0.000000000000000000, -1.000000000000000000, 0.000000000000000000 ) ) ;
#565 = DIRECTION ( 'NONE',  ( 0.000000000000000000, -0.7071067811865477948, -0.7071067811865473507 ) ) ;
#566 =( GEOMETRIC_REPRESENTATION_CONTEXT ( 3 ) GLOBAL_UNCERTAINTY_ASSIGNED_CONTEXT ( ( #90 ) ) GLOBAL_UNIT_ASSIGNED_CONTEXT ( ( #821, #253, #328 ) ) REPRESENTATION_CONTEXT ( 'NONE', 'WORKASPACE' ) );
#567 = ADVANCED_FACE ( 'NONE', ( #397 ), #79, .F. ) ;
#568 = CIRCLE ( 'NONE', #977, 5.000000000000000000 ) ;
#569 = DIRECTION ( 'NONE',  ( 0.000000000000000000, 1.000000000000000000, 0.000000000000000000 ) ) ;
#570 = CARTESIAN_POINT ( 'NONE',  ( 0.000000000000000000, 5.799999999999999822, 5.750000000000000000 ) ) ;
#571 = VECTOR ( 'NONE', #708, 1000.000000000000000 ) ;
#572 = DIRECTION ( 'NONE',  ( 0.000000000000000000, 1.000000000000000000, 0.000000000000000000 ) ) ;
#573 = DIRECTION ( 'NONE',  ( -0.000000000000000000, -1.000000000000000000, -0.000000000000000000 ) ) ;
#574 = DIRECTION ( 'NONE',  ( -0.000000000000000000, -1.000000000000000000, -0.000000000000000000 ) ) ;
#575 = CYLINDRICAL_SURFACE ( 'NONE', #617, 5.000000000000000888 ) ;
#576 = EDGE_CURVE ( 'NONE', #782, #252, #623, .T. ) ;
#577 = FACE_OUTER_BOUND ( 'NONE', #702, .T. ) ;
#578 = DIRECTION ( 'NONE',  ( -0.000000000000000000, -1.000000000000000000, -0.000000000000000000 ) ) ;
#579 = FACE_OUTER_BOUND ( 'NONE', #273, .T. ) ;
#580 = FACE_OUTER_BOUND ( 'NONE', #912, .T. ) ;
#581 = FACE_BOUND ( 'NONE', #421, .T. ) ;
#582 = ORIENTED_EDGE ( 'NONE', *, *, #84, .F. ) ;
#583 = CIRCLE ( 'NONE', #443, 2.000000000000008882 ) ;
#584 = ADVANCED_FACE ( 'NONE', ( #805, #874 ), #33, .T. ) ;
#585 = DIRECTION ( 'NONE',  ( 1.000000000000000000, 0.000000000000000000, 0.000000000000000000 ) ) ;
#586 = VERTEX_POINT ( 'NONE', #1048 ) ;
#587 = VERTEX_POINT ( 'NONE', #952 ) ;
#588 = DIRECTION ( 'NONE',  ( 0.000000000000000000, 0.000000000000000000, 1.000000000000000000 ) ) ;
#589 = ORIENTED_EDGE ( 'NONE', *, *, #671, .T. ) ;
#590 = ORIENTED_EDGE ( 'NONE', *, *, #956, .F. ) ;
#591 = FACE_OUTER_BOUND ( 'NONE', #664, .T. ) ;
#592 = DIRECTION ( 'NONE',  ( 8.659560562354931626E-17, -0.7071067811865477948, 0.7071067811865473507 ) ) ;
#593 = ORIENTED_EDGE ( 'NONE', *, *, #41, .T. ) ;
#594 = ORIENTED_EDGE ( 'NONE', *, *, #839, .F. ) ;
#595 = ADVANCED_FACE ( 'NONE', ( #47 ), #776, .F. ) ;
#596 = AXIS2_PLACEMENT_3D ( 'NONE', #130, #334, #262 ) ;
#597 = CARTESIAN_POINT ( 'NONE',  ( 0.000000000000000000, 1.000000000000000000, 5.750000000000000000 ) ) ;
#598 = AXIS2_PLACEMENT_3D ( 'NONE', #1014, #272, #605 ) ;
#599 = DIRECTION ( 'NONE',  ( 0.000000000000000000, -1.000000000000000000, 0.000000000000000000 ) ) ;
#600 = ORIENTED_EDGE ( 'NONE', *, *, #157, .T. ) ;
#601 = DIRECTION ( 'NONE',  ( -0.000000000000000000, 1.000000000000000000, -0.000000000000000000 ) ) ;
#602 = ORIENTED_EDGE ( 'NONE', *, *, #1060, .T. ) ;
#603 = AXIS2_PLACEMENT_3D ( 'NONE', #206, #642, #972 ) ;
#604 = FACE_OUTER_BOUND ( 'NONE', #542, .T. ) ;
#605 = DIRECTION ( 'NONE',  ( 0.000000000000000000, 0.000000000000000000, -1.000000000000000000 ) ) ;
#606 = VERTEX_POINT ( 'NONE', #114 ) ;
#607 = ORIENTED_EDGE ( 'NONE', *, *, #441, .F. ) ;
#608 = EDGE_CURVE ( 'NONE', #1050, #1003, #126, .T. ) ;
#609 = CARTESIAN_POINT ( 'NONE',  ( 3.918869757271529967E-16, -1.734723475976807094E-15, 8.949999999999999289 ) ) ;
#610 = EDGE_CURVE ( 'NONE', #235, #954, #170, .T. ) ;
#611 = EDGE_CURVE ( 'NONE', #1003, #663, #723, .T. ) ;
#612 = FACE_BOUND ( 'NONE', #752, .T. ) ;
#613 = VERTEX_POINT ( 'NONE', #66 ) ;
#614 = DIRECTION ( 'NONE',  ( 0.000000000000000000, 0.000000000000000000, 1.000000000000000000 ) ) ;
#615 = EDGE_CURVE ( 'NONE', #689, #1003, #941, .T. ) ;
#616 = VECTOR ( 'NONE', #925, 1000.000000000000000 ) ;
#617 = AXIS2_PLACEMENT_3D ( 'NONE', #996, #165, #3 ) ;
#618 = VERTEX_POINT ( 'NONE', #811 ) ;
#619 = DIRECTION ( 'NONE',  ( 0.000000000000000000, -1.000000000000000000, 0.000000000000000000 ) ) ;
#620 = ORIENTED_EDGE ( 'NONE', *, *, #608, .T. ) ;
#621 = VERTEX_POINT ( 'NONE', #409 ) ;
#622 = APPLICATION_PROTOCOL_DEFINITION ( 'draft international standard', 'automotive_design', 1998, #1073 ) ;
#623 = LINE ( 'NONE', #1058, #690 ) ;
#624 = DIRECTION ( 'NONE',  ( 0.000000000000000000, 1.000000000000000000, 0.000000000000000000 ) ) ;
#625 = VERTEX_POINT ( 'NONE', #244 ) ;
#626 =( LENGTH_UNIT ( ) NAMED_UNIT ( * ) SI_UNIT ( .MILLI., .METRE. ) );
#627 = DIRECTION ( 'NONE',  ( -0.000000000000000000, -1.000000000000000000, -0.000000000000000000 ) ) ;
#628 = CARTESIAN_POINT ( 'NONE',  ( 17.50000000000000000, 5.799999999999999822, -3.749999999999991118 ) ) ;
#629 = ORIENTED_EDGE ( 'NONE', *, *, #611, .T. ) ;
#630 = ORIENTED_EDGE ( 'NONE', *, *, #908, .T. ) ;
#631 = ADVANCED_FACE ( 'NONE', ( #332, #59 ), #987, .T. ) ;
#632 = CIRCLE ( 'NONE', #869, 1.700000000000000178 ) ;
#633 = LINE ( 'NONE', #555, #520 ) ;
#634 = CARTESIAN_POINT ( 'NONE',  ( 0.000000000000000000, 1.500000000000000444, 5.750000000000000000 ) ) ;
#635 = CARTESIAN_POINT ( 'NONE',  ( 25.00000000000000000, 1.000000000000000000, -9.999999999999998224 ) ) ;
#636 = ORIENTED_EDGE ( 'NONE', *, *, #1052, .F. ) ;
#637 = CARTESIAN_POINT ( 'NONE',  ( 17.50000000000000000, 5.799999999999999822, -3.749999999999991118 ) ) ;
#638 = ADVANCED_FACE ( 'NONE', ( #581, #237, #904, #577 ), #155, .T. ) ;
#639 = PLANE ( 'NONE',  #919 ) ;
#640 = VECTOR ( 'NONE', #101, 1000.000000000000000 ) ;
#641 = CARTESIAN_POINT ( 'NONE',  ( -25.00000000000000000, 1.000000000000000000, -15.00000000000000000 ) ) ;
#642 = DIRECTION ( 'NONE',  ( -0.000000000000000000, -1.000000000000000000, -0.000000000000000000 ) ) ;
#643 = CARTESIAN_POINT ( 'NONE',  ( -20.00000000000000000, 1.000000000000000000, -15.00000000000000000 ) ) ;
#644 = CARTESIAN_POINT ( 'NONE',  ( -20.00000000000000000, 1.000000000000000000, 15.00000000000000000 ) ) ;
#645 = AXIS2_PLACEMENT_3D ( 'NONE', #213, #808, #405 ) ;
#646 = DIRECTION ( 'NONE',  ( -0.000000000000000000, -1.000000000000000000, -0.000000000000000000 ) ) ;
#647 = VECTOR ( 'NONE', #1071, 1000.000000000000000 ) ;
#648 = AXIS2_PLACEMENT_3D ( 'NONE', #537, #1030, #1035 ) ;
#649 = DIRECTION ( 'NONE',  ( 0.000000000000000000, 0.000000000000000000, -1.000000000000000000 ) ) ;
#650 = EDGE_LOOP ( 'NONE', ( #950, #740, #710, #1078 ) ) ;
#651 = CONICAL_SURFACE ( 'NONE', #380, 2.000000000000008882, 0.7853981633974466137 ) ;
#652 = LINE ( 'NONE', #644, #858 ) ;
#653 = ADVANCED_FACE ( 'NONE', ( #992 ), #426, .F. ) ;
#654 = LINE ( 'NONE', #637, #571 ) ;
#655 = DIRECTION ( 'NONE',  ( 8.659560562354925463E-17, -0.7071067811865482389, 0.7071067811865469066 ) ) ;
#656 = CARTESIAN_POINT ( 'NONE',  ( -17.50000000000000000, 5.799999999999999822, -5.750000000000000000 ) ) ;
#657 = DIRECTION ( 'NONE',  ( 0.000000000000000000, 0.000000000000000000, -1.000000000000000000 ) ) ;
#658 = CARTESIAN_POINT ( 'NONE',  ( -17.50000000000000000, -1.734723475976807094E-15, -2.550000000000000266 ) ) ;
#659 = PRODUCT ( '\X2\65394ef6\X0\', '\X2\65394ef6\X0\', '', ( #286 ) ) ;
#660 = DIRECTION ( 'NONE',  ( -0.000000000000000000, -1.000000000000000000, -0.000000000000000000 ) ) ;
#661 = DIRECTION ( 'NONE',  ( 0.000000000000000000, -0.7071067811865487940, -0.7071067811865463515 ) ) ;
#662 = EDGE_CURVE ( 'NONE', #963, #872, #734, .T. ) ;
#663 = VERTEX_POINT ( 'NONE', #658 ) ;
#664 = EDGE_LOOP ( 'NONE', ( #245, #930, #589, #372 ) ) ;
#665 = AXIS2_PLACEMENT_3D ( 'NONE', #13, #367, #1020 ) ;
#666 = CARTESIAN_POINT ( 'NONE',  ( 17.50000000000000000, 1.000000000000000000, -5.750000000000000000 ) ) ;
#667 = VECTOR ( 'NONE', #763, 1000.000000000000000 ) ;
#668 = DIRECTION ( 'NONE',  ( 0.000000000000000000, 1.000000000000000000, 0.000000000000000000 ) ) ;
#669 = DIRECTION ( 'NONE',  ( -0.000000000000000000, 1.000000000000000000, 0.000000000000000000 ) ) ;
#670 = AXIS2_PLACEMENT_3D ( 'NONE', #806, #48, #228 ) ;
#671 = EDGE_CURVE ( 'NONE', #449, #546, #231, .T. ) ;
#672 = DIRECTION ( 'NONE',  ( 0.000000000000000000, 0.000000000000000000, -1.000000000000000000 ) ) ;
#673 = ORIENTED_EDGE ( 'NONE', *, *, #675, .F. ) ;
#674 =( GEOMETRIC_REPRESENTATION_CONTEXT ( 3 ) GLOBAL_UNCERTAINTY_ASSIGNED_CONTEXT ( ( #1011 ) ) GLOBAL_UNIT_ASSIGNED_CONTEXT ( ( #626, #856, #190 ) ) REPRESENTATION_CONTEXT ( 'NONE', 'WORKASPACE' ) );
#675 = EDGE_CURVE ( 'NONE', #1041, #518, #490, .T. ) ;
#676 = DIRECTION ( 'NONE',  ( 0.000000000000000000, 1.000000000000000000, 0.000000000000000000 ) ) ;
#677 = CARTESIAN_POINT ( 'NONE',  ( -17.50000000000000000, 0.000000000000000000, -5.750000000000000000 ) ) ;
#678 = ORIENTED_EDGE ( 'NONE', *, *, #608, .F. ) ;
#679 = CARTESIAN_POINT ( 'NONE',  ( -17.50000000000000000, 1.000000000000000000, -5.750000000000000000 ) ) ;
#680 = CARTESIAN_POINT ( 'NONE',  ( 17.50000000000000000, 1.000000000000000000, -8.750000000000000000 ) ) ;
#681 = DIRECTION ( 'NONE',  ( 0.000000000000000000, 0.000000000000000000, -1.000000000000000000 ) ) ;
#682 = ORIENTED_EDGE ( 'NONE', *, *, #422, .F. ) ;
#683 = CARTESIAN_POINT ( 'NONE',  ( -17.50000000000000000, 5.799999999999999822, -5.750000000000000000 ) ) ;
#684 = CARTESIAN_POINT ( 'NONE',  ( -25.00000000000000000, 0.000000000000000000, 9.999999999999998224 ) ) ;
#685 = EDGE_CURVE ( 'NONE', #116, #89, #178, .T. ) ;
#686 = FACE_OUTER_BOUND ( 'NONE', #771, .T. ) ;
#687 = ORIENTED_EDGE ( 'NONE', *, *, #576, .T. ) ;
#688 = DIRECTION ( 'NONE',  ( 0.000000000000000000, -1.000000000000000000, 0.000000000000000000 ) ) ;
#689 = VERTEX_POINT ( 'NONE', #878 ) ;
#690 = VECTOR ( 'NONE', #299, 1000.000000000000000 ) ;
#691 = CARTESIAN_POINT ( 'NONE',  ( -17.50000000000000000, -1.734723475976807094E-15, -8.949999999999999289 ) ) ;
#692 = CIRCLE ( 'NONE', #596, 3.200000000000001510 ) ;
#693 = AXIS2_PLACEMENT_3D ( 'NONE', #366, #531, #192 ) ;
#694 = ORIENTED_EDGE ( 'NONE', *, *, #139, .T. ) ;
#695 = LINE ( 'NONE', #1033, #1056 ) ;
#696 = VECTOR ( 'NONE', #198, 1000.000000000000000 ) ;
#697 = DIRECTION ( 'NONE',  ( -0.000000000000000000, -1.000000000000000000, -0.000000000000000000 ) ) ;
#698 = CIRCLE ( 'NONE', #743, 1.700000000000000178 ) ;
#699 = FACE_OUTER_BOUND ( 'NONE', #188, .T. ) ;
#700 = ORIENTED_EDGE ( 'NONE', *, *, #439, .T. ) ;
#701 = EDGE_LOOP ( 'NONE', ( #921, #44, #997, #283 ) ) ;
#702 = EDGE_LOOP ( 'NONE', ( #767, #962, #630, #348, #819, #536, #23, #61 ) ) ;
#703 = AXIS2_PLACEMENT_3D ( 'NONE', #275, #543, #111 ) ;
#704 = DIRECTION ( 'NONE',  ( 0.000000000000000000, 0.000000000000000000, 1.000000000000000000 ) ) ;
#705 = DIRECTION ( 'NONE',  ( -0.000000000000000000, -1.000000000000000000, -0.000000000000000000 ) ) ;
#706 = EDGE_LOOP ( 'NONE', ( #63, #593, #871, #687 ) ) ;
#707 = ORIENTED_EDGE ( 'NONE', *, *, #1013, .T. ) ;
#708 = DIRECTION ( 'NONE',  ( 8.659560562354919300E-17, -0.7071067811865487940, 0.7071067811865463515 ) ) ;
#709 = CARTESIAN_POINT ( 'NONE',  ( 17.50000000000000000, 5.799999999999999822, -5.750000000000000000 ) ) ;
#710 = ORIENTED_EDGE ( 'NONE', *, *, #407, .T. ) ;
#711 = ORIENTED_EDGE ( 'NONE', *, *, #127, .T. ) ;
#712 = DIRECTION ( 'NONE',  ( 1.000000000000000000, 0.000000000000000000, 0.000000000000000000 ) ) ;
#713 = EDGE_CURVE ( 'NONE', #260, #74, #717, .T. ) ;
#714 = EDGE_CURVE ( 'NONE', #541, #824, #633, .T. ) ;
#715 = DIRECTION ( 'NONE',  ( 0.000000000000000000, 0.000000000000000000, -1.000000000000000000 ) ) ;
#716 = FACE_BOUND ( 'NONE', #255, .T. ) ;
#717 = LINE ( 'NONE', #212, #32 ) ;
#718 = VECTOR ( 'NONE', #574, 1000.000000000000000 ) ;
#719 = CARTESIAN_POINT ( 'NONE',  ( 17.50000000000000000, 5.799999999999999822, -7.449999999999998401 ) ) ;
#720 = AXIS2_PLACEMENT_3D ( 'NONE', #938, #1012, #288 ) ;
#721 = FACE_OUTER_BOUND ( 'NONE', #470, .T. ) ;
#722 = DIRECTION ( 'NONE',  ( 0.000000000000000000, 0.000000000000000000, -1.000000000000000000 ) ) ;
#723 = LINE ( 'NONE', #1043, #341 ) ;
#724 = EDGE_LOOP ( 'NONE', ( #905, #629, #511, #1015 ) ) ;
#725 = DIRECTION ( 'NONE',  ( 0.000000000000000000, 0.000000000000000000, -1.000000000000000000 ) ) ;
#726 = DIRECTION ( 'NONE',  ( 0.000000000000000000, 0.000000000000000000, -1.000000000000000000 ) ) ;
#727 = AXIS2_PLACEMENT_3D ( 'NONE', #343, #749, #1005 ) ;
#728 = CIRCLE ( 'NONE', #287, 3.000000000000000888 ) ;
#729 = DIRECTION ( 'NONE',  ( 0.000000000000000000, 1.000000000000000000, 0.000000000000000000 ) ) ;
#730 = VERTEX_POINT ( 'NONE', #58 ) ;
#731 = CARTESIAN_POINT ( 'NONE',  ( -20.00000000000000000, 1.000000000000000000, 15.00000000000000000 ) ) ;
#732 = VECTOR ( 'NONE', #712, 1000.000000000000000 ) ;
#733 = FACE_OUTER_BOUND ( 'NONE', #650, .T. ) ;
#734 = LINE ( 'NONE', #1074, #1070 ) ;
#735 = ORIENTED_EDGE ( 'NONE', *, *, #675, .T. ) ;
#736 = ADVANCED_FACE ( 'NONE', ( #399 ), #46, .T. ) ;
#737 = EDGE_CURVE ( 'NONE', #102, #166, #654, .T. ) ;
#738 = FACE_OUTER_BOUND ( 'NONE', #45, .T. ) ;
#739 = ORIENTED_EDGE ( 'NONE', *, *, #418, .F. ) ;
#740 = ORIENTED_EDGE ( 'NONE', *, *, #826, .F. ) ;
#741 = CARTESIAN_POINT ( 'NONE',  ( 25.00000000000000000, 0.000000000000000000, -15.00000000000000000 ) ) ;
#742 = EDGE_CURVE ( 'NONE', #491, #787, #308, .T. ) ;
#743 = AXIS2_PLACEMENT_3D ( 'NONE', #317, #646, #726 ) ;
#744 = FACE_OUTER_BOUND ( 'NONE', #21, .T. ) ;
#745 = VERTEX_POINT ( 'NONE', #220 ) ;
#746 = AXIS2_PLACEMENT_3D ( 'NONE', #293, #847, #17 ) ;
#747 = VERTEX_POINT ( 'NONE', #1055 ) ;
#748 = AXIS2_PLACEMENT_3D ( 'NONE', #841, #939, #92 ) ;
#749 = DIRECTION ( 'NONE',  ( -0.000000000000000000, -1.000000000000000000, -0.000000000000000000 ) ) ;
#750 = CIRCLE ( 'NONE', #981, 2.000000000000008882 ) ;
#751 = CYLINDRICAL_SURFACE ( 'NONE', #247, 5.000000000000000000 ) ;
#752 = EDGE_LOOP ( 'NONE', ( #1064, #1009 ) ) ;
#753 = ORIENTED_EDGE ( 'NONE', *, *, #778, .F. ) ;
#754 = DIRECTION ( 'NONE',  ( 0.000000000000000000, -1.000000000000000000, 0.000000000000000000 ) ) ;
#755 = CARTESIAN_POINT ( 'NONE',  ( -25.00000000000000000, 1.000000000000000000, 15.00000000000000000 ) ) ;
#756 = ORIENTED_EDGE ( 'NONE', *, *, #714, .F. ) ;
#757 = ORIENTED_EDGE ( 'NONE', *, *, #662, .T. ) ;
#758 = PRODUCT_DEFINITION_CONTEXT ( 'detailed design', #1040, 'design' ) ;
#759 = EDGE_CURVE ( 'NONE', #812, #166, #928, .T. ) ;
#760 = DIRECTION ( 'NONE',  ( 0.000000000000000000, 0.000000000000000000, 1.000000000000000000 ) ) ;
#761 = DIRECTION ( 'NONE',  ( -0.000000000000000000, -1.000000000000000000, -0.000000000000000000 ) ) ;
#762 = ORIENTED_EDGE ( 'NONE', *, *, #218, .T. ) ;
#763 = DIRECTION ( 'NONE',  ( -0.000000000000000000, -1.000000000000000000, -0.000000000000000000 ) ) ;
#764 = DIRECTION ( 'NONE',  ( 0.000000000000000000, 0.000000000000000000, -1.000000000000000000 ) ) ;
#765 = CIRCLE ( 'NONE', #748, 5.000000000000000888 ) ;
#766 = CARTESIAN_POINT ( 'NONE',  ( 17.50000000000000000, -1.734723475976807094E-15, -5.750000000000000000 ) ) ;
#767 = ORIENTED_EDGE ( 'NONE', *, *, #214, .T. ) ;
#768 = DIRECTION ( 'NONE',  ( 0.000000000000000000, 0.000000000000000000, 1.000000000000000000 ) ) ;
#769 = VECTOR ( 'NONE', #53, 1000.000000000000000 ) ;
#770 = EDGE_LOOP ( 'NONE', ( #393, #466, #448, #238 ) ) ;
#771 = EDGE_LOOP ( 'NONE', ( #554, #1038, #368, #829 ) ) ;
#772 = CARTESIAN_POINT ( 'NONE',  ( 2.081899558550498554E-16, 5.799999999999999822, 7.449999999999998401 ) ) ;
#773 = CIRCLE ( 'NONE', #720, 1.699999999999998401 ) ;
#774 = CARTESIAN_POINT ( 'NONE',  ( 17.50000000000000000, 5.799999999999999822, -7.750000000000008882 ) ) ;
#775 = EDGE_LOOP ( 'NONE', ( #301, #620, #523, #307 ) ) ;
#776 = CONICAL_SURFACE ( 'NONE', #645, 3.199999999999999734, 0.7853981633974473908 ) ;
#777 = CARTESIAN_POINT ( 'NONE',  ( 0.000000000000000000, 5.799999999999999822, 3.749999999999991562 ) ) ;
#778 = EDGE_CURVE ( 'NONE', #963, #541, #875, .T. ) ;
#779 = AXIS2_PLACEMENT_3D ( 'NONE', #259, #920, #171 ) ;
#780 = CIRCLE ( 'NONE', #1029, 3.199999999999999734 ) ;
#781 = DIRECTION ( 'NONE',  ( -0.000000000000000000, -1.000000000000000000, -0.000000000000000000 ) ) ;
#782 = VERTEX_POINT ( 'NONE', #549 ) ;
#783 = ADVANCED_FACE ( 'NONE', ( #314 ), #883, .F. ) ;
#784 = ORIENTED_EDGE ( 'NONE', *, *, #340, .T. ) ;
#785 = CARTESIAN_POINT ( 'NONE',  ( 19.99999999999999645, 0.000000000000000000, -15.00000000000000000 ) ) ;
#786 = AXIS2_PLACEMENT_3D ( 'NONE', #232, #573, #144 ) ;
#787 = VERTEX_POINT ( 'NONE', #223 ) ;
#788 = ORIENTED_EDGE ( 'NONE', *, *, #995, .T. ) ;
#789 = VERTEX_POINT ( 'NONE', #51 ) ;
#790 = CARTESIAN_POINT ( 'NONE',  ( 17.50000000000000000, -1.734723475976807094E-15, -8.950000000000001066 ) ) ;
#791 = FACE_OUTER_BOUND ( 'NONE', #917, .T. ) ;
#792 = ORIENTED_EDGE ( 'NONE', *, *, #610, .T. ) ;
#793 = ORIENTED_EDGE ( 'NONE', *, *, #826, .T. ) ;
#794 = EDGE_CURVE ( 'NONE', #587, #4, #383, .T. ) ;
#795 = EDGE_LOOP ( 'NONE', ( #327, #582, #76, #1001 ) ) ;
#796 = EDGE_CURVE ( 'NONE', #824, #4, #1047, .T. ) ;
#797 = DIRECTION ( 'NONE',  ( 0.000000000000000000, 0.000000000000000000, 1.000000000000000000 ) ) ;
#798 = EDGE_CURVE ( 'NONE', #787, #518, #38, .T. ) ;
#799 = CARTESIAN_POINT ( 'NONE',  ( 0.000000000000000000, 5.799999999999999822, 5.750000000000000000 ) ) ;
#800 = DIRECTION ( 'NONE',  ( 0.000000000000000000, 0.000000000000000000, -1.000000000000000000 ) ) ;
#801 = FACE_OUTER_BOUND ( 'NONE', #855, .T. ) ;
#802 = AXIS2_PLACEMENT_3D ( 'NONE', #677, #1042, #526 ) ;
#803 = DIRECTION ( 'NONE',  ( 1.000000000000000000, 0.000000000000000000, 0.000000000000000000 ) ) ;
#804 = VECTOR ( 'NONE', #381, 1000.000000000000000 ) ;
#805 = FACE_OUTER_BOUND ( 'NONE', #267, .T. ) ;
#806 = CARTESIAN_POINT ( 'NONE',  ( 0.000000000000000000, 0.000000000000000000, 0.000000000000000000 ) ) ;
#807 = CARTESIAN_POINT ( 'NONE',  ( 19.99999999999999645, 1.000000000000000000, -15.00000000000000000 ) ) ;
#808 = DIRECTION ( 'NONE',  ( -0.000000000000000000, -1.000000000000000000, -0.000000000000000000 ) ) ;
#809 = DIRECTION ( 'NONE',  ( 0.000000000000000000, -1.000000000000000000, 0.000000000000000000 ) ) ;
#810 = DIRECTION ( 'NONE',  ( -0.000000000000000000, -1.000000000000000000, -0.000000000000000000 ) ) ;
#811 = CARTESIAN_POINT ( 'NONE',  ( 3.673940397442058389E-16, 1.000000000000000000, 8.750000000000000000 ) ) ;
#812 = VERTEX_POINT ( 'NONE', #137 ) ;
#813 = DIRECTION ( 'NONE',  ( -0.000000000000000000, -1.000000000000000000, -0.000000000000000000 ) ) ;
#814 = VERTEX_POINT ( 'NONE', #483 ) ;
#815 = LINE ( 'NONE', #835, #902 ) ;
#816 = AXIS2_PLACEMENT_3D ( 'NONE', #510, #1000, #425 ) ;
#817 = EDGE_CURVE ( 'NONE', #546, #449, #86, .T. ) ;
#818 = DIRECTION ( 'NONE',  ( -0.000000000000000000, -1.000000000000000000, -0.000000000000000000 ) ) ;
#819 = ORIENTED_EDGE ( 'NONE', *, *, #1061, .F. ) ;
#820 = EDGE_CURVE ( 'NONE', #824, #872, #698, .T. ) ;
#821 =( LENGTH_UNIT ( ) NAMED_UNIT ( * ) SI_UNIT ( .MILLI., .METRE. ) );
#822 = DIRECTION ( 'NONE',  ( 0.000000000000000000, 0.000000000000000000, -1.000000000000000000 ) ) ;
#823 = ORIENTED_EDGE ( 'NONE', *, *, #713, .T. ) ;
#824 = VERTEX_POINT ( 'NONE', #978 ) ;
#825 = DIRECTION ( 'NONE',  ( 0.000000000000000000, 0.000000000000000000, -1.000000000000000000 ) ) ;
#826 = EDGE_CURVE ( 'NONE', #195, #102, #535, .T. ) ;
#827 = AXIS2_PLACEMENT_3D ( 'NONE', #83, #994, #72 ) ;
#828 = DIRECTION ( 'NONE',  ( -0.000000000000000000, 1.000000000000000000, 0.000000000000000000 ) ) ;
#829 = ORIENTED_EDGE ( 'NONE', *, *, #241, .T. ) ;
#830 = CYLINDRICAL_SURFACE ( 'NONE', #827, 1.699999999999998401 ) ;
#831 = DIRECTION ( 'NONE',  ( -1.000000000000000000, 0.000000000000000000, -0.000000000000000000 ) ) ;
#832 = ORIENTED_EDGE ( 'NONE', *, *, #99, .F. ) ;
#833 = PRODUCT_RELATED_PRODUCT_CATEGORY ( 'part', '', ( #659 ) ) ;
#834 = COLOUR_RGB ( '',0.7921568627450980005, 0.8196078431372548767, 0.9333333333333333481 ) ;
#835 = CARTESIAN_POINT ( 'NONE',  ( -17.50000000000000000, 5.799999999999999822, -7.750000000000008882 ) ) ;
#836 = EDGE_LOOP ( 'NONE', ( #269, #753 ) ) ;
#837 = AXIS2_PLACEMENT_3D ( 'NONE', #118, #968, #324 ) ;
#838 = ORIENTED_EDGE ( 'NONE', *, *, #473, .F. ) ;
#839 = EDGE_CURVE ( 'NONE', #1050, #613, #303, .T. ) ;
#840 = LINE ( 'NONE', #108, #969 ) ;
#841 = CARTESIAN_POINT ( 'NONE',  ( 20.00000000000000000, 0.000000000000000000, 9.999999999999998224 ) ) ;
#842 = ORIENTED_EDGE ( 'NONE', *, *, #121, .T. ) ;
#843 = DIRECTION ( 'NONE',  ( 0.000000000000000000, 0.000000000000000000, -1.000000000000000000 ) ) ;
#844 = ORIENTED_EDGE ( 'NONE', *, *, #862, .F. ) ;
#845 = CARTESIAN_POINT ( 'NONE',  ( 25.00000000000000000, 0.000000000000000000, 9.999999999999998224 ) ) ;
#846 = ADVANCED_FACE ( 'NONE', ( #909 ), #159, .T. ) ;
#847 = DIRECTION ( 'NONE',  ( -0.000000000000000000, -1.000000000000000000, -0.000000000000000000 ) ) ;
#848 = DIRECTION ( 'NONE',  ( 0.000000000000000000, -0.000000000000000000, 1.000000000000000000 ) ) ;
#849 = ORIENTED_EDGE ( 'NONE', *, *, #615, .T. ) ;
#850 = LINE ( 'NONE', #845, #402 ) ;
#851 = DIRECTION ( 'NONE',  ( 0.000000000000000000, -0.7071067811865479058, -0.7071067811865472397 ) ) ;
#852 = CONICAL_SURFACE ( 'NONE', #816, 2.000000000000008882, 0.7853981633974466137 ) ;
#853 = EDGE_CURVE ( 'NONE', #814, #233, #242, .T. ) ;
#854 = CYLINDRICAL_SURFACE ( 'NONE', #802, 1.699999999999998401 ) ;
#855 = EDGE_LOOP ( 'NONE', ( #433, #382, #739, #530 ) ) ;
#856 =( NAMED_UNIT ( * ) PLANE_ANGLE_UNIT ( ) SI_UNIT ( $, .RADIAN. ) );
#857 = DIRECTION ( 'NONE',  ( 0.000000000000000000, 0.000000000000000000, -1.000000000000000000 ) ) ;
#858 = VECTOR ( 'NONE', #564, 1000.000000000000000 ) ;
#859 = ORIENTED_EDGE ( 'NONE', *, *, #41, .F. ) ;
#860 = CIRCLE ( 'NONE', #403, 3.000000000000000888 ) ;
#861 = EDGE_CURVE ( 'NONE', #541, #963, #362, .T. ) ;
#862 = EDGE_CURVE ( 'NONE', #194, #154, #815, .T. ) ;
#863 = LINE ( 'NONE', #777, #616 ) ;
#864 = EDGE_LOOP ( 'NONE', ( #204, #107 ) ) ;
#865 = ORIENTED_EDGE ( 'NONE', *, *, #685, .F. ) ;
#866 = ORIENTED_EDGE ( 'NONE', *, *, #201, .F. ) ;
#867 = DIRECTION ( 'NONE',  ( 1.000000000000000000, 0.000000000000000000, 0.000000000000000000 ) ) ;
#868 = VECTOR ( 'NONE', #813, 1000.000000000000000 ) ;
#869 = AXIS2_PLACEMENT_3D ( 'NONE', #148, #153, #356 ) ;
#870 = CYLINDRICAL_SURFACE ( 'NONE', #947, 2.999999999999999112 ) ;
#871 = ORIENTED_EDGE ( 'NONE', *, *, #214, .F. ) ;
#872 = VERTEX_POINT ( 'NONE', #915 ) ;
#873 = CARTESIAN_POINT ( 'NONE',  ( 17.50000000000000000, 5.799999999999999822, -5.750000000000000000 ) ) ;
#874 = FACE_BOUND ( 'NONE', #836, .T. ) ;
#875 = CIRCLE ( 'NONE', #984, 1.699999999999998401 ) ;
#876 = LINE ( 'NONE', #953, #289 ) ;
#877 = ORIENTED_EDGE ( 'NONE', *, *, #60, .T. ) ;
#878 = CARTESIAN_POINT ( 'NONE',  ( -17.50000000000000000, 1.500000000000000444, -7.450000000000000178 ) ) ;
#879 = CIRCLE ( 'NONE', #1021, 3.000000000000000888 ) ;
#880 = DIRECTION ( 'NONE',  ( 0.000000000000000000, 1.000000000000000000, 0.000000000000000000 ) ) ;
#881 = CARTESIAN_POINT ( 'NONE',  ( 0.000000000000000000, 5.799999999999999822, 5.750000000000000000 ) ) ;
#882 = EDGE_CURVE ( 'NONE', #625, #1075, #1084, .T. ) ;
#883 = PLANE ( 'NONE',  #271 ) ;
#884 = CARTESIAN_POINT ( 'NONE',  ( -25.00000000000000000, 1.000000000000000000, -15.00000000000000000 ) ) ;
#885 = AXIS2_PLACEMENT_3D ( 'NONE', #415, #893, #1068 ) ;
#886 = FACE_BOUND ( 'NONE', #110, .T. ) ;
#887 = AXIS2_PLACEMENT_3D ( 'NONE', #450, #697, #270 ) ;
#888 = DIRECTION ( 'NONE',  ( 0.000000000000000000, -1.000000000000000000, 0.000000000000000000 ) ) ;
#889 = VECTOR ( 'NONE', #929, 999.9999999999998863 ) ;
#890 = CARTESIAN_POINT ( 'NONE',  ( -25.00000000000000000, 0.000000000000000000, -15.00000000000000000 ) ) ;
#891 = DIRECTION ( 'NONE',  ( 0.000000000000000000, 0.000000000000000000, 1.000000000000000000 ) ) ;
#892 = CARTESIAN_POINT ( 'NONE',  ( -17.50000000000000000, 5.799999999999999822, -5.750000000000000000 ) ) ;
#893 = DIRECTION ( 'NONE',  ( -0.000000000000000000, -1.000000000000000000, -0.000000000000000000 ) ) ;
#894 = CARTESIAN_POINT ( 'NONE',  ( -17.50000000000000000, 5.799999999999999822, -7.750000000000008882 ) ) ;
#895 = ORIENTED_EDGE ( 'NONE', *, *, #862, .T. ) ;
#896 = CARTESIAN_POINT ( 'NONE',  ( -20.00000000000000000, 0.000000000000000000, 15.00000000000000000 ) ) ;
#897 = ADVANCED_FACE ( 'NONE', ( #81 ), #575, .T. ) ;
#898 = CARTESIAN_POINT ( 'NONE',  ( -17.50000000000000000, 5.799999999999999822, -5.750000000000000000 ) ) ;
#899 = CARTESIAN_POINT ( 'NONE',  ( 0.000000000000000000, 5.799999999999999822, 3.749999999999991118 ) ) ;
#900 = FACE_BOUND ( 'NONE', #864, .T. ) ;
#901 = CARTESIAN_POINT ( 'NONE',  ( 17.50000000000000000, -1.734723475976807094E-15, -2.549999999999998490 ) ) ;
#902 = VECTOR ( 'NONE', #661, 1000.000000000000000 ) ;
#903 = EDGE_LOOP ( 'NONE', ( #444, #823, #1031, #602 ) ) ;
#904 = FACE_BOUND ( 'NONE', #199, .T. ) ;
#905 = ORIENTED_EDGE ( 'NONE', *, *, #942, .F. ) ;
#906 = EDGE_CURVE ( 'NONE', #162, #194, #583, .T. ) ;
#907 = CARTESIAN_POINT ( 'NONE',  ( 0.000000000000000000, 5.799999999999999822, 5.750000000000000000 ) ) ;
#908 = EDGE_CURVE ( 'NONE', #184, #233, #352, .T. ) ;
#909 = FACE_OUTER_BOUND ( 'NONE', #210, .T. ) ;
#910 = ADVANCED_FACE ( 'NONE', ( #75 ), #751, .T. ) ;
#911 = ORIENTED_EDGE ( 'NONE', *, *, #794, .T. ) ;
#912 = EDGE_LOOP ( 'NONE', ( #946, #423, #895, #1085 ) ) ;
#913 = CARTESIAN_POINT ( 'NONE',  ( 25.00000000000000000, 0.000000000000000000, -9.999999999999998224 ) ) ;
#914 = AXIS2_PLACEMENT_3D ( 'NONE', #91, #371, #360 ) ;
#915 = CARTESIAN_POINT ( 'NONE',  ( 17.50000000000000000, 1.500000000000000444, -4.049999999999999822 ) ) ;
#916 = VERTEX_POINT ( 'NONE', #896 ) ;
#917 = EDGE_LOOP ( 'NONE', ( #175, #539, #156, #249 ) ) ;
#918 = CARTESIAN_POINT ( 'NONE',  ( -20.00000000000000000, 1.000000000000000000, -9.999999999999998224 ) ) ;
#919 = AXIS2_PLACEMENT_3D ( 'NONE', #140, #315, #970 ) ;
#920 = DIRECTION ( 'NONE',  ( 0.000000000000000000, 1.000000000000000000, 0.000000000000000000 ) ) ;
#921 = ORIENTED_EDGE ( 'NONE', *, *, #16, .F. ) ;
#922 = ORIENTED_EDGE ( 'NONE', *, *, #473, .T. ) ;
#923 = AXIS2_PLACEMENT_3D ( 'NONE', #926, #599, #96 ) ;
#924 = AXIS2_PLACEMENT_3D ( 'NONE', #472, #550, #202 ) ;
#925 = DIRECTION ( 'NONE',  ( 0.000000000000000000, -0.7071067811865489050, -0.7071067811865462405 ) ) ;
#926 = CARTESIAN_POINT ( 'NONE',  ( -17.50000000000000000, 4.800000000000006040, -5.750000000000000000 ) ) ;
#927 = ORIENTED_EDGE ( 'NONE', *, *, #369, .T. ) ;
#928 = CIRCLE ( 'NONE', #837, 3.000000000000000888 ) ;
#929 = DIRECTION ( 'NONE',  ( 8.659560562354930393E-17, -0.7071067811865479058, 0.7071067811865472397 ) ) ;
#930 = ORIENTED_EDGE ( 'NONE', *, *, #16, .T. ) ;
#931 = ADVANCED_FACE ( 'NONE', ( #580 ), #852, .T. ) ;
#932 = LINE ( 'NONE', #774, #429 ) ;
#933 = CYLINDRICAL_SURFACE ( 'NONE', #665, 1.699999999999998401 ) ;
#934 = ORIENTED_EDGE ( 'NONE', *, *, #241, .F. ) ;
#935 = ADVANCED_FACE ( 'NONE', ( #744 ), #1002, .F. ) ;
#936 = CARTESIAN_POINT ( 'NONE',  ( 3.673940397442059868E-16, 5.799999999999999822, 8.750000000000000000 ) ) ;
#937 = EDGE_CURVE ( 'NONE', #872, #587, #254, .T. ) ;
#938 = CARTESIAN_POINT ( 'NONE',  ( 0.000000000000000000, 1.500000000000000444, 5.750000000000000000 ) ) ;
#939 = DIRECTION ( 'NONE',  ( -0.000000000000000000, -1.000000000000000000, -0.000000000000000000 ) ) ;
#940 = ORIENTED_EDGE ( 'NONE', *, *, #798, .F. ) ;
#941 = CIRCLE ( 'NONE', #885, 1.700000000000000178 ) ;
#942 = EDGE_CURVE ( 'NONE', #1003, #689, #632, .T. ) ;
#943 = VECTOR ( 'NONE', #867, 1000.000000000000000 ) ;
#944 = DIRECTION ( 'NONE',  ( 8.659560562354915602E-17, -0.7071067811865489050, 0.7071067811865462405 ) ) ;
#945 = AXIS2_PLACEMENT_3D ( 'NONE', #346, #668, #991 ) ;
#946 = ORIENTED_EDGE ( 'NONE', *, *, #73, .F. ) ;
#947 = AXIS2_PLACEMENT_3D ( 'NONE', #115, #705, #800 ) ;
#948 = DIRECTION ( 'NONE',  ( -0.000000000000000000, -1.000000000000000000, -0.000000000000000000 ) ) ;
#949 = CIRCLE ( 'NONE', #487, 2.999999999999999112 ) ;
#950 = ORIENTED_EDGE ( 'NONE', *, *, #737, .F. ) ;
#951 = CARTESIAN_POINT ( 'NONE',  ( -17.50000000000000000, -1.734723475976807094E-15, -5.750000000000000000 ) ) ;
#952 = CARTESIAN_POINT ( 'NONE',  ( 17.50000000000000000, -1.734723475976807094E-15, -2.549999999999998490 ) ) ;
#953 = CARTESIAN_POINT ( 'NONE',  ( -25.00000000000000000, 1.000000000000000000, 9.999999999999998224 ) ) ;
#954 = VERTEX_POINT ( 'NONE', #986 ) ;
#955 = ORIENTED_EDGE ( 'NONE', *, *, #1060, .F. ) ;
#956 = EDGE_CURVE ( 'NONE', #353, #621, #728, .T. ) ;
#957 = EDGE_LOOP ( 'NONE', ( #832, #457, #682, #940 ) ) ;
#958 = DIRECTION ( 'NONE',  ( 0.000000000000000000, 0.000000000000000000, -1.000000000000000000 ) ) ;
#959 = DIRECTION ( 'NONE',  ( -0.000000000000000000, -1.000000000000000000, -0.000000000000000000 ) ) ;
#960 = AXIS2_PLACEMENT_3D ( 'NONE', #517, #498, #822 ) ;
#961 = CARTESIAN_POINT ( 'NONE',  ( -17.50000000000000000, 4.800000000000006040, -5.750000000000000000 ) ) ;
#962 = ORIENTED_EDGE ( 'NONE', *, *, #447, .T. ) ;
#963 = VERTEX_POINT ( 'NONE', #1088 ) ;
#964 = CARTESIAN_POINT ( 'NONE',  ( -25.00000000000000000, 1.000000000000000000, -15.00000000000000000 ) ) ;
#965 = DIRECTION ( 'NONE',  ( 0.000000000000000000, 0.000000000000000000, -1.000000000000000000 ) ) ;
#966 = LINE ( 'NONE', #29, #804 ) ;
#967 = VERTEX_POINT ( 'NONE', #413 ) ;
#968 = DIRECTION ( 'NONE',  ( 0.000000000000000000, -1.000000000000000000, 0.000000000000000000 ) ) ;
#969 = VECTOR ( 'NONE', #851, 999.9999999999998863 ) ;
#970 = DIRECTION ( 'NONE',  ( 0.000000000000000000, 0.000000000000000000, -1.000000000000000000 ) ) ;
#971 = DIRECTION ( 'NONE',  ( 0.000000000000000000, 0.000000000000000000, -1.000000000000000000 ) ) ;
#972 = DIRECTION ( 'NONE',  ( 0.000000000000000000, 0.000000000000000000, -1.000000000000000000 ) ) ;
#973 = DIRECTION ( 'NONE',  ( 0.000000000000000000, -0.000000000000000000, 1.000000000000000000 ) ) ;
#974 = AXIS2_PLACEMENT_3D ( 'NONE', #709, #880, #973 ) ;
#975 = DIRECTION ( 'NONE',  ( 0.000000000000000000, 1.000000000000000000, 0.000000000000000000 ) ) ;
#976 = EDGE_CURVE ( 'NONE', #233, #745, #548, .T. ) ;
#977 = AXIS2_PLACEMENT_3D ( 'NONE', #281, #948, #614 ) ;
#978 = CARTESIAN_POINT ( 'NONE',  ( 17.50000000000000000, 1.500000000000000444, -7.450000000000000178 ) ) ;
#979 = ADVANCED_FACE ( 'NONE', ( #733 ), #266, .T. ) ;
#980 = ADVANCED_FACE ( 'NONE', ( #738, #612 ), #7, .T. ) ;
#981 = AXIS2_PLACEMENT_3D ( 'NONE', #683, #624, #364 ) ;
#982 = DIRECTION ( 'NONE',  ( -0.000000000000000000, -1.000000000000000000, -0.000000000000000000 ) ) ;
#983 = ORIENTED_EDGE ( 'NONE', *, *, #611, .F. ) ;
#984 = AXIS2_PLACEMENT_3D ( 'NONE', #467, #561, #477 ) ;
#985 = CARTESIAN_POINT ( 'NONE',  ( 0.000000000000000000, 0.000000000000000000, 4.050000000000001599 ) ) ;
#986 = CARTESIAN_POINT ( 'NONE',  ( 3.061616997868387579E-16, 5.799999999999999822, 7.750000000000008882 ) ) ;
#987 = PLANE ( 'NONE',  #475 ) ;
#988 = EDGE_LOOP ( 'NONE', ( #106, #694, #600, #1022 ) ) ;
#989 = DIRECTION ( 'NONE',  ( 0.000000000000000000, 0.000000000000000000, 1.000000000000000000 ) ) ;
#990 = LINE ( 'NONE', #641, #647 ) ;
#991 = DIRECTION ( 'NONE',  ( 0.000000000000000000, 0.000000000000000000, 1.000000000000000000 ) ) ;
#992 = FACE_OUTER_BOUND ( 'NONE', #724, .T. ) ;
#993 = ORIENTED_EDGE ( 'NONE', *, *, #167, .T. ) ;
#994 = DIRECTION ( 'NONE',  ( -0.000000000000000000, -1.000000000000000000, -0.000000000000000000 ) ) ;
#995 = EDGE_CURVE ( 'NONE', #154, #116, #1006, .T. ) ;
#996 = CARTESIAN_POINT ( 'NONE',  ( 19.99999999999999645, 1.000000000000000000, -9.999999999999998224 ) ) ;
#997 = ORIENTED_EDGE ( 'NONE', *, *, #310, .T. ) ;
#998 = VERTEX_POINT ( 'NONE', #436 ) ;
#999 = PRESENTATION_STYLE_ASSIGNMENT (( #1076 ) ) ;
#1000 = DIRECTION ( 'NONE',  ( 0.000000000000000000, -1.000000000000000000, 0.000000000000000000 ) ) ;
#1001 = ORIENTED_EDGE ( 'NONE', *, *, #576, .F. ) ;
#1002 = PLANE ( 'NONE',  #172 ) ;
#1003 = VERTEX_POINT ( 'NONE', #183 ) ;
#1004 = ORIENTED_EDGE ( 'NONE', *, *, #956, .T. ) ;
#1005 = DIRECTION ( 'NONE',  ( 0.000000000000000000, 0.000000000000000000, -1.000000000000000000 ) ) ;
#1006 = LINE ( 'NONE', #265, #207 ) ;
#1007 = EDGE_LOOP ( 'NONE', ( #376, #189, #1046, #30 ) ) ;
#1008 = DIRECTION ( 'NONE',  ( -0.000000000000000000, -1.000000000000000000, -0.000000000000000000 ) ) ;
#1009 = ORIENTED_EDGE ( 'NONE', *, *, #139, .F. ) ;
#1010 = VECTOR ( 'NONE', #248, 1000.000000000000000 ) ;
#1011 = UNCERTAINTY_MEASURE_WITH_UNIT (LENGTH_MEASURE( 1.000000000000000082E-05 ), #626, 'distance_accuracy_value', 'NONE');
#1012 = DIRECTION ( 'NONE',  ( -0.000000000000000000, -1.000000000000000000, -0.000000000000000000 ) ) ;
#1013 = EDGE_CURVE ( 'NONE', #586, #814, #765, .T. ) ;
#1014 = CARTESIAN_POINT ( 'NONE',  ( -20.00000000000000000, 1.000000000000000000, 9.999999999999998224 ) ) ;
#1015 = ORIENTED_EDGE ( 'NONE', *, *, #42, .F. ) ;
#1016 = ADVANCED_FACE ( 'NONE', ( #686 ), #460, .F. ) ;
#1017 = AXIS2_PLACEMENT_3D ( 'NONE', #326, #818, #649 ) ;
#1018 = LINE ( 'NONE', #492, #868 ) ;
#1019 = CARTESIAN_POINT ( 'NONE',  ( 17.50000000000000000, 4.800000000000004263, -5.750000000000000000 ) ) ;
#1020 = DIRECTION ( 'NONE',  ( 0.000000000000000000, 0.000000000000000000, -1.000000000000000000 ) ) ;
#1021 = AXIS2_PLACEMENT_3D ( 'NONE', #1019, #688, #440 ) ;
#1022 = ORIENTED_EDGE ( 'NONE', *, *, #527, .T. ) ;
#1023 = EDGE_CURVE ( 'NONE', #154, #606, #396, .T. ) ;
#1024 = ADVANCED_FACE ( 'NONE', ( #187 ), #179, .T. ) ;
#1025 = DIRECTION ( 'NONE',  ( 0.000000000000000000, 0.000000000000000000, -1.000000000000000000 ) ) ;
#1026 = ORIENTED_EDGE ( 'NONE', *, *, #906, .T. ) ;
#1027 = EDGE_LOOP ( 'NONE', ( #97, #389, #147, #844 ) ) ;
#1028 = CIRCLE ( 'NONE', #320, 3.000000000000000888 ) ;
#1029 = AXIS2_PLACEMENT_3D ( 'NONE', #182, #528, #1025 ) ;
#1030 = DIRECTION ( 'NONE',  ( 0.000000000000000000, 1.000000000000000000, 0.000000000000000000 ) ) ;
#1031 = ORIENTED_EDGE ( 'NONE', *, *, #1061, .T. ) ;
#1032 = VECTOR ( 'NONE', #94, 1000.000000000000000 ) ;
#1033 = CARTESIAN_POINT ( 'NONE',  ( 25.00000000000000000, 1.000000000000000000, -15.00000000000000000 ) ) ;
#1034 = AXIS2_PLACEMENT_3D ( 'NONE', #54, #1062, #722 ) ;
#1035 = DIRECTION ( 'NONE',  ( 0.000000000000000000, 0.000000000000000000, 1.000000000000000000 ) ) ;
#1036 = ADVANCED_BREP_SHAPE_REPRESENTATION ( '\X2\65394ef6\X0\', ( #251, #703 ), #674 ) ;
#1037 = ADVANCED_FACE ( 'NONE', ( #529 ), #933, .F. ) ;
#1038 = ORIENTED_EDGE ( 'NONE', *, *, #820, .F. ) ;
#1039 = ORIENTED_EDGE ( 'NONE', *, *, #499, .F. ) ;
#1040 = APPLICATION_CONTEXT ( 'automotive_design' ) ;
#1041 = VERTEX_POINT ( 'NONE', #277 ) ;
#1042 = DIRECTION ( 'NONE',  ( -0.000000000000000000, -1.000000000000000000, -0.000000000000000000 ) ) ;
#1043 = CARTESIAN_POINT ( 'NONE',  ( -17.50000000000000000, -1.734723475976807094E-15, -2.550000000000000266 ) ) ;
#1044 = ADVANCED_FACE ( 'NONE', ( #533 ), #854, .F. ) ;
#1045 = CARTESIAN_POINT ( 'NONE',  ( 19.99999999999999645, 1.000000000000000000, -9.999999999999998224 ) ) ;
#1046 = ORIENTED_EDGE ( 'NONE', *, *, #201, .T. ) ;
#1047 = LINE ( 'NONE', #790, #119 ) ;
#1048 = CARTESIAN_POINT ( 'NONE',  ( 25.00000000000000000, 0.000000000000000000, 9.999999999999998224 ) ) ;
#1049 = CARTESIAN_POINT ( 'NONE',  ( 0.000000000000000000, 5.799999999999999822, 2.750000000000000000 ) ) ;
#1050 = VERTEX_POINT ( 'NONE', #98 ) ;
#1051 = DIRECTION ( 'NONE',  ( -0.000000000000000000, -1.000000000000000000, -0.000000000000000000 ) ) ;
#1052 = EDGE_CURVE ( 'NONE', #456, #663, #191, .T. ) ;
#1053 = DIRECTION ( 'NONE',  ( 0.000000000000000000, 0.000000000000000000, -1.000000000000000000 ) ) ;
#1054 = DIRECTION ( 'NONE',  ( -0.000000000000000000, -1.000000000000000000, -0.000000000000000000 ) ) ;
#1055 = CARTESIAN_POINT ( 'NONE',  ( -25.00000000000000000, 1.000000000000000000, 9.999999999999998224 ) ) ;
#1056 = VECTOR ( 'NONE', #365, 1000.000000000000000 ) ;
#1057 = CIRCLE ( 'NONE', #105, 5.000000000000000000 ) ;
#1058 = CARTESIAN_POINT ( 'NONE',  ( -25.00000000000000000, 0.000000000000000000, -9.999999999999998224 ) ) ;
#1059 = CARTESIAN_POINT ( 'NONE',  ( -17.50000000000000000, 5.799999999999999822, -2.750000000000000888 ) ) ;
#1060 = EDGE_CURVE ( 'NONE', #745, #586, #850, .T. ) ;
#1061 = EDGE_CURVE ( 'NONE', #74, #745, #695, .T. ) ;
#1062 = DIRECTION ( 'NONE',  ( -0.000000000000000000, -1.000000000000000000, -0.000000000000000000 ) ) ;
#1063 = FACE_OUTER_BOUND ( 'NONE', #339, .T. ) ;
#1064 = ORIENTED_EDGE ( 'NONE', *, *, #882, .F. ) ;
#1065 = LINE ( 'NONE', #1059, #197 ) ;
#1066 = AXIS2_PLACEMENT_3D ( 'NONE', #766, #761, #681 ) ;
#1067 = DIRECTION ( 'NONE',  ( 0.000000000000000000, 0.000000000000000000, 1.000000000000000000 ) ) ;
#1068 = DIRECTION ( 'NONE',  ( 0.000000000000000000, 0.000000000000000000, -1.000000000000000000 ) ) ;
#1069 = ORIENTED_EDGE ( 'NONE', *, *, #532, .T. ) ;
#1070 = VECTOR ( 'NONE', #982, 1000.000000000000000 ) ;
#1071 = DIRECTION ( 'NONE',  ( 0.000000000000000000, 0.000000000000000000, 1.000000000000000000 ) ) ;
#1072 = CARTESIAN_POINT ( 'NONE',  ( 17.50000000000000000, 5.799999999999999822, -5.750000000000000000 ) ) ;
#1073 = APPLICATION_CONTEXT ( 'automotive_design' ) ;
#1074 = CARTESIAN_POINT ( 'NONE',  ( 17.50000000000000000, 0.000000000000000000, -4.050000000000001599 ) ) ;
#1075 = VERTEX_POINT ( 'NONE', #772 ) ;
#1076 = SURFACE_STYLE_USAGE ( .BOTH. , #2 ) ;
#1077 = CARTESIAN_POINT ( 'NONE',  ( 20.00000000000000000, 1.000000000000000000, 15.00000000000000000 ) ) ;
#1078 = ORIENTED_EDGE ( 'NONE', *, *, #386, .F. ) ;
#1079 = ORIENTED_EDGE ( 'NONE', *, *, #441, .T. ) ;
#1080 = CARTESIAN_POINT ( 'NONE',  ( -25.00000000000000000, 0.000000000000000000, -9.999999999999998224 ) ) ;
#1081 = AXIS2_PLACEMENT_3D ( 'NONE', #501, #149, #319 ) ;
#1082 = DIRECTION ( 'NONE',  ( 0.000000000000000000, 1.000000000000000000, 0.000000000000000000 ) ) ;
#1083 = AXIS2_PLACEMENT_3D ( 'NONE', #634, #627, #715 ) ;
#1084 = CIRCLE ( 'NONE', #945, 1.699999999999998401 ) ;
#1085 = ORIENTED_EDGE ( 'NONE', *, *, #120, .F. ) ;
#1086 = ORIENTED_EDGE ( 'NONE', *, *, #461, .T. ) ;
#1087 = DIRECTION ( 'NONE',  ( -0.000000000000000000, -1.000000000000000000, -0.000000000000000000 ) ) ;
#1088 = CARTESIAN_POINT ( 'NONE',  ( 17.50000000000000000, 5.799999999999999822, -4.050000000000001599 ) ) ;
#1089 = ORIENTED_EDGE ( 'NONE', *, *, #56, .T. ) ;
ENDSEC;
END-ISO-10303-21;
