ISO-10303-21;
HEADER;
FILE_DESCRIPTION (( 'STEP AP203' ),
    '1' );
FILE_NAME ('金属摇杆改2.STEP',
    '2023-05-18T03:34:50',
    ( '' ),
    ( '' ),
    'SwSTEP 2.0',
    'SolidWorks 2020',
    '' );
FILE_SCHEMA (( 'CONFIG_CONTROL_DESIGN' ));
ENDSEC;

DATA;
#1 = ORIENTED_EDGE ( 'NONE', *, *, #160, .T. ) ;
#2 = PRODUCT_DEFINITION_FORMATION_WITH_SPECIFIED_SOURCE ( '任何', '', #353, .NOT_KNOWN. ) ;
#3 = DIRECTION ( 'NONE',  ( 0.000000000000000000, 0.000000000000000000, 1.000000000000000000 ) ) ;
#4 = VERTEX_POINT ( 'NONE', #194 ) ;
#5 = FACE_OUTER_BOUND ( 'NONE', #228, .T. ) ;
#6 = CARTESIAN_POINT ( 'NONE',  ( -1.249999999999997558, 0.000000000000000000, 10.00000000000000000 ) ) ;
#7 = DIRECTION ( 'NONE',  ( -1.000000000000000000, 0.000000000000000000, 0.000000000000000000 ) ) ;
#8 = VECTOR ( 'NONE', #185, 1000.000000000000000 ) ;
#9 = FACE_OUTER_BOUND ( 'NONE', #262, .T. ) ;
#10 = LINE ( 'NONE', #147, #259 ) ;
#11 = APPROVAL ( #349, '未指定' ) ;
#12 = FACE_OUTER_BOUND ( 'NONE', #381, .T. ) ;
#13 =( NAMED_UNIT ( * ) PLANE_ANGLE_UNIT ( ) SI_UNIT ( $, .RADIAN. ) );
#14 = ORIENTED_EDGE ( 'NONE', *, *, #368, .F. ) ;
#15 = ORIENTED_EDGE ( 'NONE', *, *, #380, .F. ) ;
#16 = ORIENTED_EDGE ( 'NONE', *, *, #133, .T. ) ;
#17 = CIRCLE ( 'NONE', #413, 1.249999999999997558 ) ;
#18 = AXIS2_PLACEMENT_3D ( 'NONE', #210, #55, #56 ) ;
#19 = DIRECTION ( 'NONE',  ( -0.000000000000000000, -0.000000000000000000, -1.000000000000000000 ) ) ;
#20 = EDGE_CURVE ( 'NONE', #239, #311, #195, .T. ) ;
#21 = CARTESIAN_POINT ( 'NONE',  ( 0.000000000000000000, 0.000000000000000000, 30.00000000000000000 ) ) ;
#22 = AXIS2_PLACEMENT_3D ( 'NONE', #320, #293, #74 ) ;
#23 = COORDINATED_UNIVERSAL_TIME_OFFSET ( 8, 0, .AHEAD. ) ;
#24 = DIRECTION ( 'NONE',  ( -0.000000000000000000, 0.000000000000000000, 1.000000000000000000 ) ) ;
#25 = CALENDAR_DATE ( 2023, 18, 5 ) ;
#26 = DIRECTION ( 'NONE',  ( -0.000000000000000000, -0.000000000000000000, -1.000000000000000000 ) ) ;
#27 = DIRECTION ( 'NONE',  ( -1.000000000000000000, 0.000000000000000000, 0.000000000000000000 ) ) ;
#28 = DATE_AND_TIME ( #415, #47 ) ;
#29 = CARTESIAN_POINT ( 'NONE',  ( -2.633254106751155635E-15, 0.000000000000000000, 10.75107577378445178 ) ) ;
#30 = DIRECTION ( 'NONE',  ( -0.000000000000000000, -0.000000000000000000, -1.000000000000000000 ) ) ;
#31 = CIRCLE ( 'NONE', #114, 1.249999999999988898 ) ;
#32 = COORDINATED_UNIVERSAL_TIME_OFFSET ( 8, 0, .AHEAD. ) ;
#33 = APPROVAL_STATUS ( 'not_yet_approved' ) ;
#34 = EDGE_CURVE ( 'NONE', #145, #239, #233, .T. ) ;
#35 = ORIENTED_EDGE ( 'NONE', *, *, #121, .T. ) ;
#36 = CARTESIAN_POINT ( 'NONE',  ( 0.000000000000000000, 0.000000000000000000, 0.000000000000000000 ) ) ;
#37 = DIRECTION ( 'NONE',  ( -0.000000000000000000, -0.000000000000000000, -1.000000000000000000 ) ) ;
#38 = ORIENTED_EDGE ( 'NONE', *, *, #203, .T. ) ;
#39 = CARTESIAN_POINT ( 'NONE',  ( 0.000000000000000000, 0.000000000000000000, 0.000000000000000000 ) ) ;
#40 = LINE ( 'NONE', #84, #390 ) ;
#41 = AXIS2_PLACEMENT_3D ( 'NONE', #200, #46, #7 ) ;
#42 = ADVANCED_FACE ( 'NONE', ( #223 ), #193, .F. ) ;
#43 = ORIENTED_EDGE ( 'NONE', *, *, #34, .F. ) ;
#44 = CARTESIAN_POINT ( 'NONE',  ( -2.121320343559642829, 0.000000000000000000, 30.00000000000000000 ) ) ;
#45 = ADVANCED_FACE ( 'NONE', ( #5 ), #391, .F. ) ;
#46 = DIRECTION ( 'NONE',  ( -0.000000000000000000, -0.000000000000000000, -1.000000000000000000 ) ) ;
#47 = LOCAL_TIME ( 11, 34, 50.00000000000000000, #124 ) ;
#48 = AXIS2_PLACEMENT_3D ( 'NONE', #361, #299, #146 ) ;
#49 = ORIENTED_EDGE ( 'NONE', *, *, #405, .T. ) ;
#50 = DIRECTION ( 'NONE',  ( -0.000000000000000000, 0.000000000000000000, -1.000000000000000000 ) ) ;
#51 = CARTESIAN_POINT ( 'NONE',  ( -1.249999999999993339, 0.000000000000000000, 0.000000000000000000 ) ) ;
#52 = ORIENTED_EDGE ( 'NONE', *, *, #182, .T. ) ;
#53 = CARTESIAN_POINT ( 'NONE',  ( -2.121320343559642829, -2.121320343559643273, 30.00000000000000000 ) ) ;
#54 = VERTEX_POINT ( 'NONE', #53 ) ;
#55 = DIRECTION ( 'NONE',  ( 0.000000000000000000, 0.000000000000000000, 1.000000000000000000 ) ) ;
#56 = DIRECTION ( 'NONE',  ( 1.000000000000000000, 0.000000000000000000, 0.000000000000000000 ) ) ;
#57 = CIRCLE ( 'NONE', #48, 3.000000000000000444 ) ;
#58 = AXIS2_PLACEMENT_3D ( 'NONE', #218, #93, #123 ) ;
#59 = CC_DESIGN_PERSON_AND_ORGANIZATION_ASSIGNMENT ( #317, #279, ( #2 ) ) ;
#60 = EDGE_CURVE ( 'NONE', #291, #106, #397, .T. ) ;
#61 = EDGE_CURVE ( 'NONE', #192, #106, #17, .T. ) ;
#62 = CC_DESIGN_APPROVAL ( #11, ( #102 ) ) ;
#63 = CARTESIAN_POINT ( 'NONE',  ( -2.121320343559643273, 2.121320343559643273, 30.00000000000000000 ) ) ;
#64 = CARTESIAN_POINT ( 'NONE',  ( 0.000000000000000000, 0.000000000000000000, -1.402220585023716934E-15 ) ) ;
#65 =( GEOMETRIC_REPRESENTATION_CONTEXT ( 3 ) GLOBAL_UNCERTAINTY_ASSIGNED_CONTEXT ( ( #255 ) ) GLOBAL_UNIT_ASSIGNED_CONTEXT ( ( #324, #13, #238 ) ) REPRESENTATION_CONTEXT ( 'NONE', 'WORKASPACE' ) );
#66 = COORDINATED_UNIVERSAL_TIME_OFFSET ( 8, 0, .AHEAD. ) ;
#67 = FACE_OUTER_BOUND ( 'NONE', #396, .T. ) ;
#68 = CARTESIAN_POINT ( 'NONE',  ( -2.121320343559642829, 0.000000000000000000, 95.00000000000000000 ) ) ;
#69 = CC_DESIGN_APPROVAL ( #201, ( #337 ) ) ;
#70 = ORIENTED_EDGE ( 'NONE', *, *, #236, .T. ) ;
#71 = DIRECTION ( 'NONE',  ( -1.000000000000000000, 0.000000000000000000, 0.000000000000000000 ) ) ;
#72 = ORIENTED_EDGE ( 'NONE', *, *, #203, .F. ) ;
#73 = ADVANCED_FACE ( 'NONE', ( #12 ), #264, .F. ) ;
#74 = DIRECTION ( 'NONE',  ( 1.000000000000000000, 0.000000000000000000, 0.000000000000000000 ) ) ;
#75 = ORIENTED_EDGE ( 'NONE', *, *, #368, .T. ) ;
#76 = DIRECTION ( 'NONE',  ( -1.000000000000000000, 0.000000000000000000, 0.000000000000000000 ) ) ;
#77 = CC_DESIGN_DATE_AND_TIME_ASSIGNMENT ( #221, #287, ( #102 ) ) ;
#78 = AXIS2_PLACEMENT_3D ( 'NONE', #331, #168, #365 ) ;
#79 = EDGE_CURVE ( 'NONE', #4, #173, #169, .T. ) ;
#80 = AXIS2_PLACEMENT_3D ( 'NONE', #404, #252, #313 ) ;
#81 = DIRECTION ( 'NONE',  ( 0.000000000000000000, 0.000000000000000000, 1.000000000000000000 ) ) ;
#82 = CARTESIAN_POINT ( 'NONE',  ( -1.249999999999988898, 0.000000000000000000, -1.402220585023716934E-15 ) ) ;
#83 = EDGE_LOOP ( 'NONE', ( #14, #49, #298, #394, #43, #364, #332, #159 ) ) ;
#84 = CARTESIAN_POINT ( 'NONE',  ( -2.121320343559642829, 0.000000000000000000, 105.0000000000000000 ) ) ;
#85 = ORIENTED_EDGE ( 'NONE', *, *, #304, .T. ) ;
#86 = MANIFOLD_SOLID_BREP ( 'M3x0.5 螺纹孔1', #94 ) ;
#87 = ORIENTED_EDGE ( 'NONE', *, *, #20, .T. ) ;
#88 = CARTESIAN_POINT ( 'NONE',  ( -2.121320343559642829, -2.121320343559643273, 30.00000000000000000 ) ) ;
#89 = CC_DESIGN_PERSON_AND_ORGANIZATION_ASSIGNMENT ( #256, #341, ( #102 ) ) ;
#90 = ADVANCED_FACE ( 'NONE', ( #9 ), #115, .F. ) ;
#91 = VECTOR ( 'NONE', #305, 1000.000000000000000 ) ;
#92 = CARTESIAN_POINT ( 'NONE',  ( 1.249999999999997558, 1.530808498934188612E-16, 10.00000000000000000 ) ) ;
#93 = DIRECTION ( 'NONE',  ( 0.000000000000000000, 0.000000000000000000, 1.000000000000000000 ) ) ;
#94 = CLOSED_SHELL ( 'NONE', ( #73, #334, #400, #338, #176, #131, #90, #213, #42, #274, #351, #45 ) ) ;
#95 = DIRECTION ( 'NONE',  ( 1.000000000000000000, 0.000000000000000000, 0.000000000000000000 ) ) ;
#96 = CARTESIAN_POINT ( 'NONE',  ( -2.121320343559642829, 2.121320343559643273, 0.000000000000000000 ) ) ;
#97 = CIRCLE ( 'NONE', #198, 3.000000000000000444 ) ;
#98 = AXIS2_PLACEMENT_3D ( 'NONE', #357, #359, #76 ) ;
#99 = SHAPE_DEFINITION_REPRESENTATION ( #191, #371 ) ;
#100 = CARTESIAN_POINT ( 'NONE',  ( 0.000000000000000000, 0.000000000000000000, 10.00000000000000000 ) ) ;
#101 = ORIENTED_EDGE ( 'NONE', *, *, #244, .F. ) ;
#102 = SECURITY_CLASSIFICATION ( '', '', #277 ) ;
#103 = ORIENTED_EDGE ( 'NONE', *, *, #205, .F. ) ;
#104 = EDGE_CURVE ( 'NONE', #265, #311, #57, .T. ) ;
#105 = APPROVAL_ROLE ( '' ) ;
#106 = VERTEX_POINT ( 'NONE', #6 ) ;
#107 = CONICAL_SURFACE ( 'NONE', #402, 1.249999999999997558, 1.029744258676651869 ) ;
#108 = FACE_OUTER_BOUND ( 'NONE', #83, .T. ) ;
#109 = DIRECTION ( 'NONE',  ( -0.000000000000000000, -0.000000000000000000, -1.000000000000000000 ) ) ;
#110 = CARTESIAN_POINT ( 'NONE',  ( -2.121320343559642829, -2.121320343559643273, 0.000000000000000000 ) ) ;
#111 = FACE_OUTER_BOUND ( 'NONE', #286, .T. ) ;
#112 = DIRECTION ( 'NONE',  ( -0.000000000000000000, -0.000000000000000000, -1.000000000000000000 ) ) ;
#113 = ORIENTED_EDGE ( 'NONE', *, *, #316, .T. ) ;
#114 = AXIS2_PLACEMENT_3D ( 'NONE', #350, #216, #71 ) ;
#115 = PLANE ( 'NONE',  #126 ) ;
#116 = EDGE_LOOP ( 'NONE', ( #150, #360, #75 ) ) ;
#117 = EDGE_CURVE ( 'NONE', #130, #265, #363, .T. ) ;
#118 = AXIS2_PLACEMENT_3D ( 'NONE', #231, #3, #95 ) ;
#119 = CC_DESIGN_PERSON_AND_ORGANIZATION_ASSIGNMENT ( #161, #318, ( #2 ) ) ;
#120 = LOCAL_TIME ( 11, 34, 50.00000000000000000, #32 ) ;
#121 = EDGE_CURVE ( 'NONE', #239, #54, #292, .T. ) ;
#122 = CARTESIAN_POINT ( 'NONE',  ( 3.000000000000000444, 3.673940397442060361E-16, 0.000000000000000000 ) ) ;
#123 = DIRECTION ( 'NONE',  ( 1.000000000000000000, 0.000000000000000000, -0.000000000000000000 ) ) ;
#124 = COORDINATED_UNIVERSAL_TIME_OFFSET ( 8, 0, .AHEAD. ) ;
#125 = LINE ( 'NONE', #383, #398 ) ;
#126 = AXIS2_PLACEMENT_3D ( 'NONE', #44, #401, #50 ) ;
#127 = PERSON_AND_ORGANIZATION_ROLE ( 'design_owner' ) ;
#128 = CARTESIAN_POINT ( 'NONE',  ( 1.249999999999997558, 1.530808498934188612E-16, 10.00000000000000000 ) ) ;
#129 = CIRCLE ( 'NONE', #414, 3.000000000000000444 ) ;
#130 = VERTEX_POINT ( 'NONE', #110 ) ;
#131 = ADVANCED_FACE ( 'NONE', ( #196, #323 ), #328, .F. ) ;
#132 = APPROVAL_DATE_TIME ( #251, #186 ) ;
#133 = EDGE_CURVE ( 'NONE', #106, #366, #208, .T. ) ;
#134 = ORIENTED_EDGE ( 'NONE', *, *, #304, .F. ) ;
#135 = CC_DESIGN_APPROVAL ( #186, ( #2 ) ) ;
#136 = APPLICATION_CONTEXT ( 'configuration controlled 3d designs of mechanical parts and assemblies' ) ;
#137 = CALENDAR_DATE ( 2023, 18, 5 ) ;
#138 = ORIENTED_EDGE ( 'NONE', *, *, #117, .F. ) ;
#139 = ORIENTED_EDGE ( 'NONE', *, *, #34, .T. ) ;
#140 = DIRECTION ( 'NONE',  ( 1.000000000000000000, 0.000000000000000000, 0.000000000000000000 ) ) ;
#141 = DIRECTION ( 'NONE',  ( 0.000000000000000000, 1.000000000000000000, -0.000000000000000000 ) ) ;
#142 = ORIENTED_EDGE ( 'NONE', *, *, #272, .F. ) ;
#143 = CARTESIAN_POINT ( 'NONE',  ( 0.000000000000000000, 0.000000000000000000, 0.000000000000000000 ) ) ;
#144 = DIRECTION ( 'NONE',  ( -0.000000000000000000, -0.000000000000000000, -1.000000000000000000 ) ) ;
#145 = VERTEX_POINT ( 'NONE', #403 ) ;
#146 = DIRECTION ( 'NONE',  ( 1.000000000000000000, 0.000000000000000000, 0.000000000000000000 ) ) ;
#147 = CARTESIAN_POINT ( 'NONE',  ( 3.000000000000000444, 3.673940397442060361E-16, 105.0000000000000000 ) ) ;
#148 = FACE_OUTER_BOUND ( 'NONE', #116, .T. ) ;
#149 = PERSON ( '未指定', '未指定', '未指定', ('未指定'), ('未指定'), ('未指定') ) ;
#150 = ORIENTED_EDGE ( 'NONE', *, *, #374, .F. ) ;
#151 = CC_DESIGN_PERSON_AND_ORGANIZATION_ASSIGNMENT ( #224, #375, ( #337 ) ) ;
#152 = DIRECTION ( 'NONE',  ( 1.000000000000000000, 0.000000000000000000, -0.000000000000000000 ) ) ;
#153 = CIRCLE ( 'NONE', #18, 3.000000000000000444 ) ;
#154 = DIRECTION ( 'NONE',  ( 1.000000000000000000, 0.000000000000000000, 0.000000000000000000 ) ) ;
#155 = FACE_OUTER_BOUND ( 'NONE', #207, .T. ) ;
#156 = DIRECTION ( 'NONE',  ( 0.000000000000000000, 0.000000000000000000, -1.000000000000000000 ) ) ;
#157 = CALENDAR_DATE ( 2023, 18, 5 ) ;
#158 = DIRECTION ( 'NONE',  ( -1.000000000000000000, 0.000000000000000000, 0.000000000000000000 ) ) ;
#159 = ORIENTED_EDGE ( 'NONE', *, *, #205, .T. ) ;
#160 = EDGE_CURVE ( 'NONE', #54, #130, #211, .T. ) ;
#161 = PERSON_AND_ORGANIZATION ( #149, #344 ) ;
#162 = CARTESIAN_POINT ( 'NONE',  ( -2.121320343559642829, 0.000000000000000000, 95.00000000000000000 ) ) ;
#163 = EDGE_CURVE ( 'NONE', #358, #242, #153, .T. ) ;
#164 = AXIS2_PLACEMENT_3D ( 'NONE', #64, #26, #406 ) ;
#165 = ORIENTED_EDGE ( 'NONE', *, *, #244, .T. ) ;
#166 = APPROVAL_ROLE ( '' ) ;
#167 = VERTEX_POINT ( 'NONE', #204 ) ;
#168 = DIRECTION ( 'NONE',  ( -0.000000000000000000, 0.000000000000000000, 1.000000000000000000 ) ) ;
#169 = CIRCLE ( 'NONE', #78, 3.000000000000000444 ) ;
#170 = ORIENTED_EDGE ( 'NONE', *, *, #232, .F. ) ;
#171 = APPROVAL_PERSON_ORGANIZATION ( #283, #201, #166 ) ;
#172 = DIRECTION ( 'NONE',  ( 0.000000000000000000, 0.000000000000000000, 1.000000000000000000 ) ) ;
#173 = VERTEX_POINT ( 'NONE', #175 ) ;
#174 = ORIENTED_EDGE ( 'NONE', *, *, #61, .F. ) ;
#175 = CARTESIAN_POINT ( 'NONE',  ( -3.000000000000000444, 0.000000000000000000, 95.00000000000000000 ) ) ;
#176 = ADVANCED_FACE ( 'NONE', ( #148 ), #275, .T. ) ;
#177 = ORIENTED_EDGE ( 'NONE', *, *, #121, .F. ) ;
#178 = ORIENTED_EDGE ( 'NONE', *, *, #117, .T. ) ;
#179 = AXIS2_PLACEMENT_3D ( 'NONE', #187, #109, #253 ) ;
#180 = AXIS2_PLACEMENT_3D ( 'NONE', #39, #172, #152 ) ;
#181 = CARTESIAN_POINT ( 'NONE',  ( 0.000000000000000000, 0.000000000000000000, 95.00000000000000000 ) ) ;
#182 = EDGE_CURVE ( 'NONE', #355, #366, #31, .T. ) ;
#183 = CARTESIAN_POINT ( 'NONE',  ( 3.000000000000000444, 3.673940397442060361E-16, 105.0000000000000000 ) ) ;
#184 = MECHANICAL_CONTEXT ( 'NONE', #136, 'mechanical' ) ;
#185 = DIRECTION ( 'NONE',  ( 0.000000000000000000, -1.000000000000000000, 0.000000000000000000 ) ) ;
#186 = APPROVAL ( #33, '未指定' ) ;
#187 = CARTESIAN_POINT ( 'NONE',  ( 0.000000000000000000, 0.000000000000000000, 0.000000000000000000 ) ) ;
#188 = EDGE_CURVE ( 'NONE', #173, #145, #373, .T. ) ;
#189 = PERSON_AND_ORGANIZATION ( #149, #344 ) ;
#190 = CARTESIAN_POINT ( 'NONE',  ( -2.121320343559643273, 2.121320343559642829, 95.00000000000000000 ) ) ;
#191 = PRODUCT_DEFINITION_SHAPE ( 'NONE', 'NONE',  #337 ) ;
#192 = VERTEX_POINT ( 'NONE', #92 ) ;
#193 = PLANE ( 'NONE',  #217 ) ;
#194 = CARTESIAN_POINT ( 'NONE',  ( -2.121320343559643273, 2.121320343559642829, 95.00000000000000000 ) ) ;
#195 = LINE ( 'NONE', #225, #322 ) ;
#196 = FACE_BOUND ( 'NONE', #410, .T. ) ;
#197 = APPLICATION_CONTEXT ( 'configuration controlled 3d designs of mechanical parts and assemblies' ) ;
#198 = AXIS2_PLACEMENT_3D ( 'NONE', #21, #156, #158 ) ;
#199 = ORIENTED_EDGE ( 'NONE', *, *, #303, .T. ) ;
#200 = CARTESIAN_POINT ( 'NONE',  ( 0.000000000000000000, 0.000000000000000000, 10.00000000000000000 ) ) ;
#201 = APPROVAL ( #387, '未指定' ) ;
#202 = ORIENTED_EDGE ( 'NONE', *, *, #61, .T. ) ;
#203 = EDGE_CURVE ( 'NONE', #54, #145, #97, .T. ) ;
#204 = CARTESIAN_POINT ( 'NONE',  ( -2.121320343559643273, -2.121320343559642829, 95.00000000000000000 ) ) ;
#205 = EDGE_CURVE ( 'NONE', #4, #300, #214, .T. ) ;
#206 = LINE ( 'NONE', #261, #271 ) ;
#207 = EDGE_LOOP ( 'NONE', ( #38, #139, #35 ) ) ;
#208 = LINE ( 'NONE', #51, #250 ) ;
#209 = ORIENTED_EDGE ( 'NONE', *, *, #405, .F. ) ;
#210 = CARTESIAN_POINT ( 'NONE',  ( 0.000000000000000000, 0.000000000000000000, 105.0000000000000000 ) ) ;
#211 = LINE ( 'NONE', #88, #325 ) ;
#212 = AXIS2_PLACEMENT_3D ( 'NONE', #222, #24, #376 ) ;
#213 = ADVANCED_FACE ( 'NONE', ( #155 ), #340, .T. ) ;
#214 = LINE ( 'NONE', #190, #302 ) ;
#215 = DATE_AND_TIME ( #25, #285 ) ;
#216 = DIRECTION ( 'NONE',  ( -0.000000000000000000, -0.000000000000000000, -1.000000000000000000 ) ) ;
#217 = AXIS2_PLACEMENT_3D ( 'NONE', #68, #319, #281 ) ;
#218 = CARTESIAN_POINT ( 'NONE',  ( 0.000000000000000000, 0.000000000000000000, 105.0000000000000000 ) ) ;
#219 = CONICAL_SURFACE ( 'NONE', #41, 1.249999999999997558, 1.029744258676651869 ) ;
#220 = ORIENTED_EDGE ( 'NONE', *, *, #133, .F. ) ;
#221 = DATE_AND_TIME ( #157, #367 ) ;
#222 = CARTESIAN_POINT ( 'NONE',  ( 0.000000000000000000, 0.000000000000000000, 95.00000000000000000 ) ) ;
#223 = FACE_OUTER_BOUND ( 'NONE', #330, .T. ) ;
#224 = PERSON_AND_ORGANIZATION ( #149, #344 ) ;
#225 = CARTESIAN_POINT ( 'NONE',  ( -2.121320343559643273, 2.121320343559643273, 30.00000000000000000 ) ) ;
#226 = CARTESIAN_POINT ( 'NONE',  ( 0.000000000000000000, 0.000000000000000000, 30.00000000000000000 ) ) ;
#227 = CYLINDRICAL_SURFACE ( 'NONE', #98, 3.000000000000000444 ) ;
#228 = EDGE_LOOP ( 'NONE', ( #15, #134, #16, #70 ) ) ;
#229 = DIRECTION ( 'NONE',  ( -0.000000000000000000, -0.000000000000000000, -1.000000000000000000 ) ) ;
#230 = ORIENTED_EDGE ( 'NONE', *, *, #104, .F. ) ;
#231 = CARTESIAN_POINT ( 'NONE',  ( 0.000000000000000000, 0.000000000000000000, 0.000000000000000000 ) ) ;
#232 = EDGE_CURVE ( 'NONE', #291, #192, #276, .T. ) ;
#233 = CIRCLE ( 'NONE', #343, 3.000000000000000444 ) ;
#234 = AXIS2_PLACEMENT_3D ( 'NONE', #143, #81, #140 ) ;
#235 = ORIENTED_EDGE ( 'NONE', *, *, #60, .T. ) ;
#236 = EDGE_CURVE ( 'NONE', #366, #355, #268, .T. ) ;
#237 = DIRECTION ( 'NONE',  ( -0.8571673007021110013, 0.000000000000000000, -0.5150380749100563760 ) ) ;
#238 =( NAMED_UNIT ( * ) SI_UNIT ( $, .STERADIAN. ) SOLID_ANGLE_UNIT ( ) );
#239 = VERTEX_POINT ( 'NONE', #63 ) ;
#240 = APPROVAL_PERSON_ORGANIZATION ( #385, #11, #411 ) ;
#241 = DIRECTION ( 'NONE',  ( -1.000000000000000000, 0.000000000000000000, 0.000000000000000000 ) ) ;
#242 = VERTEX_POINT ( 'NONE', #183 ) ;
#243 = AXIS2_PLACEMENT_3D ( 'NONE', #362, #229, #389 ) ;
#244 = EDGE_CURVE ( 'NONE', #173, #167, #129, .T. ) ;
#245 = LINE ( 'NONE', #162, #91 ) ;
#246 = PERSON_AND_ORGANIZATION ( #149, #344 ) ;
#247 = PLANE ( 'NONE',  #212 ) ;
#248 = CALENDAR_DATE ( 2023, 18, 5 ) ;
#249 = CARTESIAN_POINT ( 'NONE',  ( -2.121320343559643273, 2.121320343559642829, 105.0000000000000000 ) ) ;
#250 = VECTOR ( 'NONE', #297, 1000.000000000000000 ) ;
#251 = DATE_AND_TIME ( #137, #273 ) ;
#252 = DIRECTION ( 'NONE',  ( 0.000000000000000000, 0.000000000000000000, -1.000000000000000000 ) ) ;
#253 = DIRECTION ( 'NONE',  ( -1.000000000000000000, 0.000000000000000000, 0.000000000000000000 ) ) ;
#254 = EDGE_LOOP ( 'NONE', ( #138, #384, #230 ) ) ;
#255 = UNCERTAINTY_MEASURE_WITH_UNIT (LENGTH_MEASURE( 1.000000000000000082E-05 ), #324, 'distance_accuracy_value', 'NONE');
#256 = PERSON_AND_ORGANIZATION ( #149, #344 ) ;
#257 = APPLICATION_PROTOCOL_DEFINITION ( 'international standard', 'config_control_design', 1994, #136 ) ;
#258 = ORIENTED_EDGE ( 'NONE', *, *, #188, .T. ) ;
#259 = VECTOR ( 'NONE', #144, 1000.000000000000000 ) ;
#260 = CARTESIAN_POINT ( 'NONE',  ( -2.121320343559642829, 0.000000000000000000, 30.00000000000000000 ) ) ;
#261 = CARTESIAN_POINT ( 'NONE',  ( 1.249999999999993339, 1.530808498934183189E-16, 0.000000000000000000 ) ) ;
#262 = EDGE_LOOP ( 'NONE', ( #113, #347, #177, #87 ) ) ;
#263 = CC_DESIGN_DATE_AND_TIME_ASSIGNMENT ( #28, #309, ( #337 ) ) ;
#264 = CYLINDRICAL_SURFACE ( 'NONE', #301, 1.249999999999993339 ) ;
#265 = VERTEX_POINT ( 'NONE', #122 ) ;
#266 = DIRECTION ( 'NONE',  ( -0.000000000000000000, -0.000000000000000000, -1.000000000000000000 ) ) ;
#267 = CARTESIAN_POINT ( 'NONE',  ( 1.249999999999988898, 1.530808498934180724E-16, -1.402220585023716934E-15 ) ) ;
#268 = CIRCLE ( 'NONE', #164, 1.249999999999988898 ) ;
#269 = CARTESIAN_POINT ( 'NONE',  ( -1.249999999999997558, 0.000000000000000000, 10.00000000000000000 ) ) ;
#270 = ORIENTED_EDGE ( 'NONE', *, *, #380, .T. ) ;
#271 = VECTOR ( 'NONE', #37, 1000.000000000000000 ) ;
#272 = EDGE_CURVE ( 'NONE', #167, #358, #125, .T. ) ;
#273 = LOCAL_TIME ( 11, 34, 50.00000000000000000, #66 ) ;
#274 = ADVANCED_FACE ( 'NONE', ( #67 ), #247, .T. ) ;
#275 = PLANE ( 'NONE',  #58 ) ;
#276 = LINE ( 'NONE', #128, #339 ) ;
#277 = SECURITY_CLASSIFICATION_LEVEL ( 'unclassified' ) ;
#278 = CARTESIAN_POINT ( 'NONE',  ( 0.000000000000000000, 0.000000000000000000, 10.00000000000000000 ) ) ;
#279 = PERSON_AND_ORGANIZATION_ROLE ( 'creator' ) ;
#280 = DIRECTION ( 'NONE',  ( 0.8571673007021110013, 1.049727191138617093E-16, -0.5150380749100563760 ) ) ;
#281 = DIRECTION ( 'NONE',  ( 0.000000000000000000, 0.000000000000000000, -1.000000000000000000 ) ) ;
#282 = VECTOR ( 'NONE', #392, 1000.000000000000000 ) ;
#283 = PERSON_AND_ORGANIZATION ( #149, #344 ) ;
#284 = LINE ( 'NONE', #346, #8 ) ;
#285 = LOCAL_TIME ( 11, 34, 50.00000000000000000, #23 ) ;
#286 = EDGE_LOOP ( 'NONE', ( #170, #235, #85 ) ) ;
#287 = DATE_TIME_ROLE ( 'classification_date' ) ;
#288 = ORIENTED_EDGE ( 'NONE', *, *, #272, .T. ) ;
#289 = CARTESIAN_POINT ( 'NONE',  ( 0.000000000000000000, 0.000000000000000000, 10.00000000000000000 ) ) ;
#290 = FACE_OUTER_BOUND ( 'NONE', #335, .T. ) ;
#291 = VERTEX_POINT ( 'NONE', #29 ) ;
#292 = LINE ( 'NONE', #260, #282 ) ;
#293 = DIRECTION ( 'NONE',  ( 0.000000000000000000, 0.000000000000000000, 1.000000000000000000 ) ) ;
#294 = ORIENTED_EDGE ( 'NONE', *, *, #79, .T. ) ;
#295 = APPROVAL_PERSON_ORGANIZATION ( #189, #186, #105 ) ;
#296 = CYLINDRICAL_SURFACE ( 'NONE', #243, 3.000000000000000444 ) ;
#297 = DIRECTION ( 'NONE',  ( -0.000000000000000000, -0.000000000000000000, -1.000000000000000000 ) ) ;
#298 = ORIENTED_EDGE ( 'NONE', *, *, #104, .T. ) ;
#299 = DIRECTION ( 'NONE',  ( 0.000000000000000000, 0.000000000000000000, 1.000000000000000000 ) ) ;
#300 = VERTEX_POINT ( 'NONE', #249 ) ;
#301 = AXIS2_PLACEMENT_3D ( 'NONE', #36, #395, #369 ) ;
#302 = VECTOR ( 'NONE', #342, 1000.000000000000000 ) ;
#303 = EDGE_CURVE ( 'NONE', #167, #4, #245, .T. ) ;
#304 = EDGE_CURVE ( 'NONE', #106, #192, #315, .T. ) ;
#305 = DIRECTION ( 'NONE',  ( 0.000000000000000000, 1.000000000000000000, -0.000000000000000000 ) ) ;
#306 = CARTESIAN_POINT ( 'NONE',  ( -3.000000000000000444, 0.000000000000000000, 105.0000000000000000 ) ) ;
#307 = DIRECTION ( 'NONE',  ( -0.000000000000000000, 0.000000000000000000, 1.000000000000000000 ) ) ;
#308 = DESIGN_CONTEXT ( 'detailed design', #197, 'design' ) ;
#309 = DATE_TIME_ROLE ( 'creation_date' ) ;
#310 = FACE_OUTER_BOUND ( 'NONE', #321, .T. ) ;
#311 = VERTEX_POINT ( 'NONE', #96 ) ;
#312 = APPROVAL_DATE_TIME ( #215, #201 ) ;
#313 = DIRECTION ( 'NONE',  ( -1.000000000000000000, 0.000000000000000000, -0.000000000000000000 ) ) ;
#314 = ORIENTED_EDGE ( 'NONE', *, *, #182, .F. ) ;
#315 = CIRCLE ( 'NONE', #327, 1.249999999999997558 ) ;
#316 = EDGE_CURVE ( 'NONE', #311, #130, #284, .T. ) ;
#317 = PERSON_AND_ORGANIZATION ( #149, #344 ) ;
#318 = PERSON_AND_ORGANIZATION_ROLE ( 'design_supplier' ) ;
#319 = DIRECTION ( 'NONE',  ( 1.000000000000000000, 0.000000000000000000, 0.000000000000000000 ) ) ;
#320 = CARTESIAN_POINT ( 'NONE',  ( 0.000000000000000000, 0.000000000000000000, 105.0000000000000000 ) ) ;
#321 = EDGE_LOOP ( 'NONE', ( #372, #386, #202 ) ) ;
#322 = VECTOR ( 'NONE', #112, 1000.000000000000000 ) ;
#323 = FACE_OUTER_BOUND ( 'NONE', #254, .T. ) ;
#324 =( LENGTH_UNIT ( ) NAMED_UNIT ( * ) SI_UNIT ( .MILLI., .METRE. ) );
#325 = VECTOR ( 'NONE', #333, 1000.000000000000000 ) ;
#326 = ORIENTED_EDGE ( 'NONE', *, *, #303, .F. ) ;
#327 = AXIS2_PLACEMENT_3D ( 'NONE', #278, #377, #408 ) ;
#328 = PLANE ( 'NONE',  #180 ) ;
#329 = DIRECTION ( 'NONE',  ( -1.000000000000000000, 0.000000000000000000, 0.000000000000000000 ) ) ;
#330 = EDGE_LOOP ( 'NONE', ( #352, #103, #326, #288 ) ) ;
#331 = CARTESIAN_POINT ( 'NONE',  ( 0.000000000000000000, 0.000000000000000000, 95.00000000000000000 ) ) ;
#332 = ORIENTED_EDGE ( 'NONE', *, *, #79, .F. ) ;
#333 = DIRECTION ( 'NONE',  ( -0.000000000000000000, -0.000000000000000000, -1.000000000000000000 ) ) ;
#334 = ADVANCED_FACE ( 'NONE', ( #310 ), #107, .F. ) ;
#335 = EDGE_LOOP ( 'NONE', ( #209, #370, #142, #101, #258, #72, #1, #178 ) ) ;
#336 = CIRCLE ( 'NONE', #22, 3.000000000000000444 ) ;
#337 = PRODUCT_DEFINITION ( '未知', '', #2, #308 ) ;
#338 = ADVANCED_FACE ( 'NONE', ( #290 ), #296, .T. ) ;
#339 = VECTOR ( 'NONE', #280, 1000.000000000000000 ) ;
#340 = PLANE ( 'NONE',  #80 ) ;
#341 = PERSON_AND_ORGANIZATION_ROLE ( 'classification_officer' ) ;
#342 = DIRECTION ( 'NONE',  ( -0.000000000000000000, -0.000000000000000000, 1.000000000000000000 ) ) ;
#343 = AXIS2_PLACEMENT_3D ( 'NONE', #226, #356, #27 ) ;
#344 = ORGANIZATION ( '未指定', '未指定', '' ) ;
#345 = APPLICATION_PROTOCOL_DEFINITION ( 'international standard', 'config_control_design', 1994, #197 ) ;
#346 = CARTESIAN_POINT ( 'NONE',  ( -2.121320343559642829, 0.000000000000000000, -0.000000000000000000 ) ) ;
#347 = ORIENTED_EDGE ( 'NONE', *, *, #160, .F. ) ;
#348 = CC_DESIGN_SECURITY_CLASSIFICATION ( #102, ( #2 ) ) ;
#349 = APPROVAL_STATUS ( 'not_yet_approved' ) ;
#350 = CARTESIAN_POINT ( 'NONE',  ( 0.000000000000000000, 0.000000000000000000, -1.402220585023716934E-15 ) ) ;
#351 = ADVANCED_FACE ( 'NONE', ( #111 ), #219, .F. ) ;
#352 = ORIENTED_EDGE ( 'NONE', *, *, #374, .T. ) ;
#353 = PRODUCT ( '金属摇杆改2', '金属摇杆改2', '', ( #184 ) ) ;
#354 = APPROVAL_DATE_TIME ( #382, #11 ) ;
#355 = VERTEX_POINT ( 'NONE', #267 ) ;
#356 = DIRECTION ( 'NONE',  ( 0.000000000000000000, 0.000000000000000000, -1.000000000000000000 ) ) ;
#357 = CARTESIAN_POINT ( 'NONE',  ( 0.000000000000000000, 0.000000000000000000, 105.0000000000000000 ) ) ;
#358 = VERTEX_POINT ( 'NONE', #393 ) ;
#359 = DIRECTION ( 'NONE',  ( -0.000000000000000000, -0.000000000000000000, -1.000000000000000000 ) ) ;
#360 = ORIENTED_EDGE ( 'NONE', *, *, #163, .T. ) ;
#361 = CARTESIAN_POINT ( 'NONE',  ( 0.000000000000000000, 0.000000000000000000, 0.000000000000000000 ) ) ;
#362 = CARTESIAN_POINT ( 'NONE',  ( 0.000000000000000000, 0.000000000000000000, 105.0000000000000000 ) ) ;
#363 = CIRCLE ( 'NONE', #234, 3.000000000000000444 ) ;
#364 = ORIENTED_EDGE ( 'NONE', *, *, #188, .F. ) ;
#365 = DIRECTION ( 'NONE',  ( 1.000000000000000000, 0.000000000000000000, 0.000000000000000000 ) ) ;
#366 = VERTEX_POINT ( 'NONE', #82 ) ;
#367 = LOCAL_TIME ( 11, 34, 50.00000000000000000, #407 ) ;
#368 = EDGE_CURVE ( 'NONE', #242, #300, #336, .T. ) ;
#369 = DIRECTION ( 'NONE',  ( -1.000000000000000000, 0.000000000000000000, 0.000000000000000000 ) ) ;
#370 = ORIENTED_EDGE ( 'NONE', *, *, #163, .F. ) ;
#371 = ADVANCED_BREP_SHAPE_REPRESENTATION ( '金属摇杆改2', ( #86, #118 ), #65 ) ;
#372 = ORIENTED_EDGE ( 'NONE', *, *, #60, .F. ) ;
#373 = LINE ( 'NONE', #306, #379 ) ;
#374 = EDGE_CURVE ( 'NONE', #358, #300, #40, .T. ) ;
#375 = PERSON_AND_ORGANIZATION_ROLE ( 'creator' ) ;
#376 = DIRECTION ( 'NONE',  ( 1.000000000000000000, 0.000000000000000000, 0.000000000000000000 ) ) ;
#377 = DIRECTION ( 'NONE',  ( -0.000000000000000000, -0.000000000000000000, -1.000000000000000000 ) ) ;
#378 = VECTOR ( 'NONE', #237, 1000.000000000000000 ) ;
#379 = VECTOR ( 'NONE', #19, 1000.000000000000000 ) ;
#380 = EDGE_CURVE ( 'NONE', #192, #355, #206, .T. ) ;
#381 = EDGE_LOOP ( 'NONE', ( #174, #270, #52, #220 ) ) ;
#382 = DATE_AND_TIME ( #248, #120 ) ;
#383 = CARTESIAN_POINT ( 'NONE',  ( -2.121320343559643273, -2.121320343559642829, 95.00000000000000000 ) ) ;
#384 = ORIENTED_EDGE ( 'NONE', *, *, #316, .F. ) ;
#385 = PERSON_AND_ORGANIZATION ( #149, #344 ) ;
#386 = ORIENTED_EDGE ( 'NONE', *, *, #232, .T. ) ;
#387 = APPROVAL_STATUS ( 'not_yet_approved' ) ;
#388 = ORIENTED_EDGE ( 'NONE', *, *, #236, .F. ) ;
#389 = DIRECTION ( 'NONE',  ( -1.000000000000000000, 0.000000000000000000, 0.000000000000000000 ) ) ;
#390 = VECTOR ( 'NONE', #141, 1000.000000000000000 ) ;
#391 = CYLINDRICAL_SURFACE ( 'NONE', #179, 1.249999999999993339 ) ;
#392 = DIRECTION ( 'NONE',  ( 0.000000000000000000, -1.000000000000000000, 0.000000000000000000 ) ) ;
#393 = CARTESIAN_POINT ( 'NONE',  ( -2.121320343559642829, -2.121320343559643273, 105.0000000000000000 ) ) ;
#394 = ORIENTED_EDGE ( 'NONE', *, *, #20, .F. ) ;
#395 = DIRECTION ( 'NONE',  ( -0.000000000000000000, -0.000000000000000000, -1.000000000000000000 ) ) ;
#396 = EDGE_LOOP ( 'NONE', ( #294, #165, #199 ) ) ;
#397 = LINE ( 'NONE', #269, #378 ) ;
#398 = VECTOR ( 'NONE', #412, 1000.000000000000000 ) ;
#399 = PRODUCT_RELATED_PRODUCT_CATEGORY ( 'detail', '', ( #353 ) ) ;
#400 = ADVANCED_FACE ( 'NONE', ( #108 ), #227, .T. ) ;
#401 = DIRECTION ( 'NONE',  ( 1.000000000000000000, 0.000000000000000000, -0.000000000000000000 ) ) ;
#402 = AXIS2_PLACEMENT_3D ( 'NONE', #100, #30, #329 ) ;
#403 = CARTESIAN_POINT ( 'NONE',  ( -3.000000000000000444, 0.000000000000000000, 30.00000000000000000 ) ) ;
#404 = CARTESIAN_POINT ( 'NONE',  ( 0.000000000000000000, 0.000000000000000000, 30.00000000000000000 ) ) ;
#405 = EDGE_CURVE ( 'NONE', #242, #265, #10, .T. ) ;
#406 = DIRECTION ( 'NONE',  ( -1.000000000000000000, 0.000000000000000000, 0.000000000000000000 ) ) ;
#407 = COORDINATED_UNIVERSAL_TIME_OFFSET ( 8, 0, .AHEAD. ) ;
#408 = DIRECTION ( 'NONE',  ( -1.000000000000000000, 0.000000000000000000, 0.000000000000000000 ) ) ;
#409 = CC_DESIGN_PERSON_AND_ORGANIZATION_ASSIGNMENT ( #246, #127, ( #353 ) ) ;
#410 = EDGE_LOOP ( 'NONE', ( #388, #314 ) ) ;
#411 = APPROVAL_ROLE ( '' ) ;
#412 = DIRECTION ( 'NONE',  ( -0.000000000000000000, -0.000000000000000000, 1.000000000000000000 ) ) ;
#413 = AXIS2_PLACEMENT_3D ( 'NONE', #289, #266, #241 ) ;
#414 = AXIS2_PLACEMENT_3D ( 'NONE', #181, #307, #154 ) ;
#415 = CALENDAR_DATE ( 2023, 18, 5 ) ;
ENDSEC;
END-ISO-10303-21;
